<?xml version="1.0" encoding="UTF-8" standalone="no"?>
<!DOCTYPE svg PUBLIC "-//W3C//DTD SVG 1.1//EN"
 "http://www.w3.org/Graphics/SVG/1.1/DTD/svg11.dtd">
<!-- Generated by graphviz version 2.42.4 (0)
 -->
<!-- Title: loops&#45;3 Pages: 1 -->
<svg width="253pt" height="387pt"
 viewBox="0.00 0.00 253.00 387.00" xmlns="http://www.w3.org/2000/svg" xmlns:xlink="http://www.w3.org/1999/xlink">
<g id="graph0" class="graph" transform="scale(1 1) rotate(0) translate(4 383)">
<title>loops&#45;3</title>
<polygon fill="white" stroke="transparent" points="-4,4 -4,-383 249,-383 249,4 -4,4"/>
<g id="clust1" class="cluster">
<title>cluster_test</title>
<polygon fill="none" stroke="black" points="8,-8 8,-371 237,-371 237,-8 8,-8"/>
<text text-anchor="middle" x="122.5" y="-355.8" font-family="Times,serif" font-size="14.00">test</text>
</g>
<!-- test_141 -->
<g id="node1" class="node">
<title>test_141</title>
<polygon fill="none" stroke="black" points="224.5,-340 95.5,-340 95.5,-304 224.5,-304 224.5,-340"/>
<text text-anchor="middle" x="160" y="-318.3" font-family="Times,serif" font-size="14.00">let sum: Int = 0</text>
</g>
<!-- test_142 -->
<g id="node2" class="node">
<title>test_142</title>
<polygon fill="none" stroke="black" points="212,-268 108,-268 108,-232 212,-232 212,-268"/>
<text text-anchor="middle" x="160" y="-246.3" font-family="Times,serif" font-size="14.00">let i: Int = 0</text>
</g>
<!-- test_141&#45;&gt;test_142 -->
<g id="edge1" class="edge">
<title>test_141&#45;&gt;test_142</title>
<path fill="none" stroke="black" d="M160,-303.7C160,-295.98 160,-286.71 160,-278.11"/>
<polygon fill="black" stroke="black" points="163.5,-278.1 160,-268.1 156.5,-278.1 163.5,-278.1"/>
</g>
<!-- test_144 -->
<g id="node3" class="node">
<title>test_144</title>
<polygon fill="none" stroke="black" points="208,-196 112,-196 112,-160 208,-160 208,-196"/>
<text text-anchor="middle" x="160" y="-174.3" font-family="Times,serif" font-size="14.00">repeat (10)</text>
</g>
<!-- test_142&#45;&gt;test_144 -->
<g id="edge2" class="edge">
<title>test_142&#45;&gt;test_144</title>
<path fill="none" stroke="black" d="M160,-231.7C160,-223.98 160,-214.71 160,-206.11"/>
<polygon fill="black" stroke="black" points="163.5,-206.1 160,-196.1 156.5,-206.1 163.5,-206.1"/>
</g>
<!-- test_146 -->
<g id="node4" class="node">
<title>test_146</title>
<polygon fill="none" stroke="black" points="93.5,-124 16.5,-124 16.5,-88 93.5,-88 93.5,-124"/>
<text text-anchor="middle" x="55" y="-102.3" font-family="Times,serif" font-size="14.00">i = i + 1</text>
</g>
<!-- test_144&#45;&gt;test_146 -->
<g id="edge3" class="edge">
<title>test_144&#45;&gt;test_146</title>
<path fill="none" stroke="black" d="M134.31,-159.88C120.71,-150.81 103.83,-139.55 89.14,-129.76"/>
<polygon fill="black" stroke="black" points="91.05,-126.82 80.78,-124.19 87.16,-132.65 91.05,-126.82"/>
</g>
<!-- test_151 -->
<g id="node6" class="node">
<title>test_151</title>
<polygon fill="#66a7db" stroke="black" points="208.5,-124 111.5,-124 111.5,-88 208.5,-88 208.5,-124"/>
<text text-anchor="middle" x="160" y="-102.3" font-family="Times,serif" font-size="14.00">return sum</text>
</g>
<!-- test_144&#45;&gt;test_151 -->
<g id="edge6" class="edge">
<title>test_144&#45;&gt;test_151</title>
<path fill="none" stroke="black" d="M160,-159.7C160,-151.98 160,-142.71 160,-134.11"/>
<polygon fill="black" stroke="black" points="163.5,-134.1 160,-124.1 156.5,-134.1 163.5,-134.1"/>
</g>
<!-- test_148 -->
<g id="node5" class="node">
<title>test_148</title>
<polygon fill="none" stroke="black" points="183.5,-52 60.5,-52 60.5,-16 183.5,-16 183.5,-52"/>
<text text-anchor="middle" x="122" y="-30.3" font-family="Times,serif" font-size="14.00">sum = sum + i</text>
</g>
<!-- test_146&#45;&gt;test_148 -->
<g id="edge4" class="edge">
<title>test_146&#45;&gt;test_148</title>
<path fill="none" stroke="black" d="M71.56,-87.7C79.68,-79.22 89.59,-68.86 98.47,-59.58"/>
<polygon fill="black" stroke="black" points="101.24,-61.75 105.63,-52.1 96.19,-56.91 101.24,-61.75"/>
</g>
<!-- test_148&#45;&gt;test_144 -->
<g id="edge5" class="edge">
<title>test_148&#45;&gt;test_144</title>
<path fill="none" stroke="black" d="M175.22,-52.04C191.89,-60.16 208.42,-71.77 218,-88 226.13,-101.78 224.45,-109.36 218,-124 213.01,-135.31 204.29,-145.26 195.1,-153.38"/>
<polygon fill="black" stroke="black" points="192.83,-150.72 187.34,-159.77 197.28,-156.12 192.83,-150.72"/>
</g>
</g>
</svg>
