<?xml version="1.0" standalone="no"?>
<!DOCTYPE svg PUBLIC "-//W3C//DTD SVG 20010904//EN"
 "http://www.w3.org/TR/2001/REC-SVG-20010904/DTD/svg10.dtd">
<svg version="1.0" xmlns="http://www.w3.org/2000/svg"
 width="976.000000pt" height="520.000000pt" viewBox="0 0 976.000000 520.000000"
 preserveAspectRatio="xMidYMid meet">

<g transform="translate(0.000000,520.000000) scale(0.100000,-0.100000)"
fill="#000000" stroke="none">
<path d="M3490 4625 l0 -525 780 0 780 0 0 525 0 525 -780 0 -780 0 0 -525z
m1530 0 l0 -495 -750 0 -750 0 0 495 0 495 750 0 750 0 0 -495z"/>
<path d="M4020 4698 c-16 -21 -20 -33 -12 -36 8 -2 12 -26 12 -67 0 -35 3 -70
6 -79 8 -20 44 -21 70 -1 18 14 18 15 -6 12 -24 -2 -25 0 -28 64 -3 62 -1 67
20 74 l23 8 -22 4 c-16 3 -23 11 -23 29 0 32 -10 30 -40 -8z"/>
<path d="M4460 4698 c-16 -21 -20 -33 -12 -36 8 -2 12 -26 12 -67 0 -35 3 -70
6 -79 8 -20 44 -21 70 -1 18 14 18 15 -6 12 -24 -2 -25 0 -28 64 -3 62 -1 67
20 74 l23 8 -22 4 c-16 3 -23 11 -23 29 0 32 -10 30 -40 -8z"/>
<path d="M4323 4675 c-35 -25 -29 -59 15 -92 47 -36 53 -44 40 -60 -16 -20
-35 -16 -57 13 l-21 27 0 -32 c0 -30 1 -31 44 -31 100 0 100 67 1 126 -12 6
-16 16 -12 27 9 23 44 21 52 -3 9 -28 25 -25 25 5 0 14 -6 25 -12 25 -7 0 -22
3 -33 6 -11 2 -30 -2 -42 -11z"/>
<path d="M4140 4660 c-37 -37 -38 -103 -3 -142 24 -27 84 -24 111 5 30 32 29
57 -1 29 -13 -12 -32 -22 -44 -22 -25 0 -53 30 -53 58 0 20 5 22 60 22 l60 0
-11 27 c-6 15 -16 31 -22 35 -23 15 -77 8 -97 -12z m80 -20 c0 -6 -16 -10 -35
-10 -38 0 -46 13 -18 29 19 10 53 -2 53 -19z"/>
<path d="M5530 4625 l0 -525 375 0 375 0 0 -217 c0 -120 -3 -269 -7 -330 l-6
-113 -49 0 c-26 0 -48 -1 -48 -3 0 -1 24 -76 54 -165 l55 -162 -435 0 -434 0
-2 -405 -3 -406 -565 -188 c-979 -327 -1778 -612 -2542 -905 -152 -58 -280
-106 -285 -106 -5 0 -18 20 -29 45 l-19 45 -125 -110 c-69 -60 -128 -109 -132
-110 -5 0 -8 25 -8 55 l0 55 -825 0 -825 0 0 -525 0 -525 825 0 825 0 2 463 3
462 170 8 c93 4 171 10 173 12 3 2 -3 22 -12 45 -9 22 -16 42 -16 44 0 15
1211 463 1920 711 460 161 1431 485 1453 485 15 0 17 -11 17 -94 l0 -95 46 -3
47 -3 -596 -397 -595 -397 -26 40 c-15 21 -28 39 -30 39 -2 0 -49 -61 -105
-135 l-102 -135 -935 0 -934 0 0 -525 0 -525 1130 0 1130 0 0 525 0 525 -172
1 -173 1 135 35 c74 19 139 38 144 43 4 4 -4 25 -18 46 l-25 38 604 403 c333
222 605 408 605 413 0 6 127 10 360 10 l360 0 0 -335 0 -335 -51 0 c-44 0 -50
-2 -44 -17 3 -10 26 -74 50 -143 24 -69 47 -133 50 -143 7 -16 -32 -17 -674
-17 l-681 0 0 -525 0 -525 1365 0 1365 0 0 525 0 525 -679 0 -680 0 55 156
c30 85 54 157 54 160 0 2 -22 4 -50 4 l-50 0 0 335 0 335 229 0 c126 0 231 -4
233 -8 8 -22 651 -517 981 -756 59 -43 107 -83 107 -88 0 -6 -12 -26 -26 -45
-14 -19 -24 -36 -23 -37 2 -1 65 -20 139 -40 74 -21 150 -42 168 -47 l32 -11
0 -504 0 -504 775 0 775 0 0 525 0 525 -632 0 -633 1 -90 145 -90 145 -31 -35
c-17 -20 -34 -36 -38 -36 -4 0 -56 38 -114 84 -150 117 -631 474 -790 587 -74
51 -129 95 -123 97 8 3 11 162 11 523 l0 519 -172 0 -173 1 157 71 158 71 -30
34 c-17 18 -30 37 -30 41 0 4 62 67 138 139 l138 131 142 -136 143 -135 -36
-37 -36 -37 156 -69 156 -69 -121 -3 -120 -3 0 -519 0 -520 775 0 775 0 0 520
0 520 -389 0 -390 0 55 162 c30 89 54 164 54 165 0 2 -22 3 -50 3 l-50 0 0 88
c0 49 -3 197 -7 330 l-6 242 376 0 377 0 0 525 0 525 -775 0 -775 0 0 -525 0
-524 113 -3 114 -3 -241 -227 -240 -227 -125 119 c-69 65 -178 168 -241 229
l-115 110 113 1 112 0 0 525 0 525 -775 0 -775 0 0 -525z m1520 0 l0 -495
-745 0 -745 0 0 495 0 495 745 0 745 0 0 -495z m2070 0 l0 -495 -750 0 -750 0
0 495 0 495 750 0 750 0 0 -495z m-2165 -667 c83 -78 197 -186 254 -241 l104
-98 -123 -117 c-167 -158 -154 -151 -196 -111 -18 18 -35 31 -37 28 -2 -2 -39
-73 -82 -156 l-78 -153 -254 0 c-139 0 -253 3 -252 8 0 4 26 77 58 162 l58
155 -55 3 -55 3 7 76 c3 42 6 190 6 330 l0 253 248 0 247 0 150 -142z m1405
24 c0 -66 3 -214 7 -330 l6 -212 -51 0 c-29 0 -52 -4 -52 -8 0 -5 25 -75 55
-157 30 -81 55 -151 55 -156 0 -5 -114 -9 -252 -9 l-253 0 -79 155 c-44 85
-83 155 -87 155 -4 0 -20 -15 -37 -34 l-30 -34 -134 126 c-73 70 -135 132
-137 137 -2 6 108 117 245 247 l249 237 248 1 247 0 0 -118z m-1240 -1397 l0
-495 -845 0 -845 0 0 495 0 495 845 0 845 0 0 -495z m2020 0 l0 -495 -745 0
-745 0 0 495 0 495 745 0 745 0 0 -495z m-2042 -524 c-2 -5 80 -69 182 -142
231 -165 485 -353 703 -521 l167 -129 -32 -40 c-17 -21 -29 -41 -27 -42 2 -2
68 -26 147 -53 l143 -49 -125 -3 c-98 -2 -125 -6 -128 -17 -2 -7 -48 49 -102
125 l-99 140 -29 -40 c-17 -22 -32 -40 -34 -40 -19 0 -973 725 -1068 811 -6 5
58 9 147 9 89 0 156 -4 155 -9z m-5418 -1506 l0 -495 -800 0 -800 0 0 495 0
495 800 0 800 0 0 -495z m2730 0 l0 -495 -1100 0 -1100 0 0 495 0 495 1100 0
1100 0 0 -495z m3200 0 l0 -495 -1335 0 -1335 0 0 495 0 495 1335 0 1335 0 0
-495z m2040 0 l0 -495 -745 0 -745 0 0 495 0 495 745 0 745 0 0 -495z"/>
<path d="M6426 4761 c-18 -7 -18 -8 -3 -14 15 -5 17 -23 17 -116 0 -94 -3
-111 -17 -120 -14 -8 -5 -10 37 -10 42 0 51 2 38 10 -16 9 -18 26 -18 134 0
134 -1 137 -54 116z"/>
<path d="M5928 4676 c-31 -11 -35 -21 -13 -30 21 -8 21 -109 -1 -130 -14 -15
-11 -16 38 -15 29 0 46 3 38 6 -23 9 -30 25 -30 73 0 56 11 75 40 67 14 -3 23
0 27 10 9 23 -18 34 -44 18 -17 -11 -22 -12 -25 -2 -2 10 -10 10 -30 3z"/>
<path d="M6235 4676 c-19 -8 -25 -15 -17 -20 15 -9 17 -226 2 -226 -5 0 -10
-4 -10 -10 0 -5 20 -10 45 -10 25 0 45 5 45 10 0 6 -7 10 -15 10 -11 0 -15 11
-15 39 0 34 3 38 20 34 55 -15 100 31 100 102 0 25 -8 43 -25 60 -27 28 -37
30 -67 14 -14 -7 -23 -8 -27 -1 -4 7 -16 6 -36 -2z m99 -32 c19 -19 21 -83 3
-108 -8 -11 -23 -17 -38 -14 -22 3 -24 8 -27 56 -4 74 24 104 62 66z"/>
<path d="M6061 4654 c-28 -36 -29 -106 -1 -134 30 -30 85 -27 115 6 32 34 33
55 2 26 -13 -12 -33 -22 -45 -22 -27 0 -62 33 -62 60 0 18 7 20 60 20 65 0 72
8 44 48 -23 33 -86 31 -113 -4z m69 1 c17 -21 9 -27 -31 -23 -31 3 -32 4 -15
21 21 21 30 21 46 2z"/>
<path d="M6562 4603 c51 -105 49 -148 -8 -148 -33 0 -42 -20 -15 -34 33 -18
65 22 107 134 20 55 41 106 47 113 7 9 3 12 -17 12 -16 0 -25 -4 -21 -10 4 -6
-1 -34 -11 -63 l-17 -52 -25 54 c-20 44 -22 55 -11 62 9 6 0 9 -26 9 l-41 0
38 -77z"/>
<path d="M8435 4760 c-8 -14 3 -30 21 -30 8 0 14 9 14 20 0 21 -24 28 -35 10z"/>
<path d="M8572 4757 c-7 -8 -15 -28 -18 -45 -4 -20 -13 -32 -23 -32 -14 -1
-14 -2 2 -11 13 -8 17 -24 17 -79 0 -55 -4 -71 -17 -79 -14 -8 -5 -10 37 -10
42 0 51 2 38 10 -15 8 -18 24 -18 84 0 68 2 74 23 78 l22 4 -22 2 c-19 1 -23
7 -23 35 0 40 12 52 30 31 17 -21 42 -19 38 3 -4 22 -70 29 -86 9z"/>
<path d="M8321 4701 c-16 -22 -20 -35 -13 -40 6 -4 12 -40 14 -81 3 -72 4 -75
29 -78 15 -2 31 4 40 14 13 16 12 17 -5 11 -27 -11 -36 8 -36 76 0 50 2 57 20
57 25 0 26 16 1 23 -11 2 -21 15 -23 28 -3 23 -4 23 -27 -10z"/>
<path d="M7925 4676 c-19 -8 -25 -15 -17 -20 17 -10 16 -143 0 -149 -7 -3 10
-6 37 -6 39 0 46 2 33 10 -14 8 -18 23 -18 70 0 54 2 60 26 71 34 16 44 0 44
-74 0 -44 -4 -59 -17 -67 -14 -8 -7 -10 32 -11 33 0 45 3 36 9 -9 6 -16 32
-18 68 -6 84 -11 100 -32 106 -11 3 -31 -1 -45 -8 -20 -11 -25 -11 -28 0 -2
11 -9 11 -33 1z"/>
<path d="M8130 4660 c-58 -58 -22 -160 56 -160 46 0 63 9 79 41 37 71 0 139
-75 139 -26 0 -47 -7 -60 -20z m84 -9 c26 -28 32 -86 12 -116 -20 -30 -37 -32
-60 -6 -26 28 -32 86 -12 116 20 30 37 32 60 6z"/>
<path d="M8426 4671 c-18 -7 -18 -8 -3 -14 25 -9 25 -132 0 -146 -14 -8 -7
-10 30 -11 44 0 47 1 33 16 -12 11 -16 36 -16 90 0 77 -3 81 -44 65z"/>
<path d="M8692 4603 c51 -105 49 -148 -8 -148 -33 0 -42 -20 -15 -34 33 -18
65 22 107 134 20 55 41 106 47 113 7 9 3 12 -17 12 -16 0 -25 -4 -21 -10 4 -6
-1 -34 -11 -63 l-17 -52 -25 54 c-20 44 -22 55 -11 62 9 6 0 9 -26 9 l-41 0
38 -77z"/>
<path d="M5712 2727 c-7 -8 -15 -28 -18 -45 -4 -20 -13 -32 -23 -32 -14 -1
-14 -2 2 -11 13 -8 17 -24 17 -79 0 -55 -4 -71 -17 -79 -14 -8 -5 -10 37 -10
42 0 51 2 38 10 -15 8 -18 24 -18 84 0 68 2 74 23 78 l22 4 -22 2 c-19 1 -23
7 -23 35 0 40 12 52 30 31 17 -21 42 -19 38 3 -4 22 -70 29 -86 9z"/>
<path d="M6826 2731 c-18 -7 -18 -8 -3 -14 11 -4 17 -17 17 -36 0 -27 -3 -29
-35 -28 -73 2 -115 -90 -72 -156 16 -25 23 -27 75 -25 31 1 66 6 76 11 17 9
18 10 3 19 -14 8 -17 27 -17 123 0 120 -1 123 -44 106z m4 -111 c17 -32 8
-111 -13 -124 -15 -9 -23 -6 -43 17 -13 15 -24 40 -24 55 0 59 57 95 80 52z"/>
<path d="M6070 2650 c-8 -5 -18 -6 -22 -4 -5 3 -23 2 -40 -1 -28 -7 -30 -9
-15 -20 25 -18 24 -130 0 -144 -14 -8 -5 -10 36 -11 47 0 52 2 37 13 -14 10
-17 25 -14 72 3 56 4 60 28 60 18 0 25 6 25 19 0 23 -14 29 -35 16z"/>
<path d="M6439 2642 c-15 -13 -20 -25 -16 -36 9 -23 31 -15 35 13 5 29 46 25
50 -4 2 -16 -8 -26 -42 -43 -31 -14 -48 -30 -52 -47 -11 -45 30 -70 76 -45 11
6 21 6 24 1 3 -5 41 -9 83 -10 65 -1 74 1 59 12 -14 10 -17 25 -14 72 3 58 4
60 30 60 34 0 44 11 28 30 -11 14 -15 14 -36 0 -15 -10 -24 -11 -26 -3 -3 7
-14 9 -32 4 -22 -5 -26 -10 -17 -19 14 -14 15 -134 0 -142 -23 -15 -49 36 -49
97 0 54 -2 59 -26 68 -36 14 -49 13 -75 -8z m69 -104 c-2 -25 -8 -34 -26 -36
-33 -5 -41 26 -13 50 33 26 43 22 39 -14z"/>
<path d="M5820 2630 c-58 -58 -22 -160 56 -160 46 0 63 9 79 41 37 71 0 139
-75 139 -26 0 -47 -7 -60 -20z m84 -9 c26 -28 32 -86 12 -116 -20 -30 -37 -32
-60 -6 -26 28 -32 86 -12 116 20 30 37 32 60 6z"/>
<path d="M6128 2638 c6 -7 23 -44 38 -83 15 -38 31 -74 35 -79 4 -5 18 12 30
38 13 25 26 46 29 46 3 0 13 -18 21 -41 8 -22 19 -41 24 -42 4 -1 21 30 37 68
15 39 32 78 38 88 9 14 6 17 -14 17 -18 0 -23 -5 -20 -17 2 -10 -4 -36 -15
-58 l-18 -40 -17 39 c-19 46 -20 63 -3 69 6 3 -7 6 -31 6 l-42 1 15 -24 c15
-23 15 -27 -3 -61 l-18 -37 -18 46 c-10 26 -15 53 -12 61 4 12 -3 15 -31 15
-27 0 -33 -3 -25 -12z"/>
<path d="M8526 2731 c-18 -7 -18 -8 -3 -14 11 -4 17 -17 17 -36 0 -27 -3 -29
-36 -28 -51 1 -84 -37 -84 -99 0 -68 24 -86 106 -81 63 4 92 15 67 24 -10 3
-13 38 -13 124 0 128 -1 131 -54 110z m2 -103 c17 -17 15 -113 -2 -127 -34
-28 -84 36 -71 89 12 47 46 65 73 38z"/>
<path d="M7923 2645 c-35 -25 -29 -59 15 -92 47 -36 53 -44 40 -60 -16 -20
-35 -16 -57 13 l-21 27 0 -32 c0 -30 1 -31 44 -31 100 0 100 67 1 126 -12 6
-16 16 -12 27 9 23 44 21 52 -3 9 -28 25 -25 25 5 0 14 -6 25 -12 25 -7 0 -22
3 -33 6 -11 2 -30 -2 -42 -11z"/>
<path d="M8310 2650 c-8 -5 -23 -7 -32 -4 -27 8 -63 -5 -49 -19 15 -15 14
-130 -1 -145 -9 -9 -2 -12 32 -12 34 0 41 3 32 12 -7 7 -12 38 -12 69 0 59 16
86 45 75 19 -7 21 -126 3 -144 -9 -9 -2 -12 32 -12 34 0 41 3 32 12 -7 7 -12
40 -12 79 0 59 -3 70 -22 83 -26 19 -28 19 -48 6z"/>
<path d="M8870 2650 c-8 -5 -18 -6 -22 -4 -5 3 -23 2 -40 -1 -28 -7 -30 -9
-15 -20 25 -18 24 -130 0 -144 -14 -8 -5 -10 36 -11 47 0 52 2 37 13 -14 10
-17 25 -14 72 3 56 4 60 28 60 18 0 25 6 25 19 0 23 -14 29 -35 16z"/>
<path d="M8061 2624 c-13 -16 -21 -41 -21 -64 0 -81 81 -120 135 -65 32 31 33
56 2 27 -31 -29 -61 -28 -86 4 -35 45 -28 54 39 54 52 0 60 3 60 18 0 54 -93
72 -129 26z m75 -1 c17 -17 16 -18 -15 -21 -40 -4 -48 2 -31 23 16 19 25 19
46 -2z"/>
<path d="M8640 2630 c-37 -37 -38 -103 -3 -142 24 -27 84 -24 111 5 30 32 29
57 -1 29 -13 -12 -32 -22 -44 -22 -25 0 -53 30 -53 58 0 20 5 22 60 22 l60 0
-11 27 c-6 15 -16 31 -22 35 -23 15 -77 8 -97 -12z m80 -20 c0 -6 -16 -10 -35
-10 -38 0 -46 13 -18 29 19 10 53 -2 53 -19z"/>
<path d="M895 629 c-20 -21 -26 -33 -17 -36 8 -3 12 -26 12 -64 0 -33 5 -69
10 -80 13 -23 52 -25 70 -4 11 13 9 15 -11 13 -23 -3 -24 0 -27 65 -3 62 -1
67 18 67 11 0 20 5 20 10 0 6 -9 10 -19 10 -14 0 -21 8 -23 26 l-3 26 -30 -33z"/>
<path d="M1381 631 c-16 -22 -20 -35 -13 -40 6 -4 12 -40 14 -81 3 -72 4 -75
29 -78 15 -2 31 4 40 14 13 16 12 17 -5 11 -27 -11 -36 8 -36 76 0 50 2 57 20
57 25 0 26 16 1 23 -11 2 -21 15 -23 28 -3 23 -4 23 -27 -10z"/>
<path d="M365 611 c-49 -20 -72 -74 -55 -126 20 -59 82 -74 125 -30 32 31 33
56 2 27 -29 -27 -51 -28 -77 -2 -26 26 -26 81 -2 103 24 22 39 21 52 -3 6 -11
17 -20 25 -20 25 0 17 36 -10 48 -30 14 -33 14 -60 3z"/>
<path d="M770 610 c-8 -5 -23 -7 -32 -4 -27 8 -63 -5 -49 -19 15 -15 14 -130
-1 -145 -9 -9 -2 -12 32 -12 34 0 41 3 32 12 -7 7 -12 38 -12 69 0 59 16 86
45 75 19 -7 21 -126 3 -144 -9 -9 -2 -12 32 -12 34 0 41 3 32 12 -7 7 -12 40
-12 79 0 59 -3 70 -22 83 -26 19 -28 19 -48 6z"/>
<path d="M510 590 c-58 -58 -22 -160 56 -160 46 0 63 9 79 41 37 71 0 139 -75
139 -26 0 -47 -7 -60 -20z m84 -9 c26 -28 32 -86 12 -116 -20 -30 -37 -32 -60
-6 -26 28 -32 86 -12 116 20 30 37 32 60 6z"/>
<path d="M1010 586 c-28 -31 -32 -92 -7 -129 23 -36 83 -38 115 -4 28 29 29
54 2 27 -38 -38 -100 -12 -100 42 0 15 9 18 61 18 58 0 60 1 54 23 -16 52 -85
65 -125 23z m68 2 c20 -20 14 -28 -23 -28 -38 0 -46 13 -17 29 22 13 26 13 40
-1z"/>
<path d="M1178 593 c11 -10 27 -30 36 -44 16 -26 16 -28 -19 -73 l-35 -46 29
0 c23 0 28 4 25 18 -2 9 3 26 11 36 15 20 15 20 30 0 8 -10 13 -27 11 -36 -3
-15 3 -18 35 -18 l39 0 -35 46 c-42 55 -43 73 -9 108 l27 26 -32 0 c-18 0 -30
-4 -27 -9 4 -5 3 -16 0 -25 -5 -13 -9 -14 -21 -5 -7 7 -12 18 -9 26 4 9 -5 13
-35 13 -40 0 -41 0 -21 -17z"/>
<path d="M2930 691 c0 -5 9 -11 20 -14 18 -5 20 -14 20 -110 0 -98 -2 -107
-22 -122 -22 -16 -18 -16 73 -13 78 2 101 7 118 22 27 24 27 70 1 94 -20 18
-20 21 -4 48 24 42 7 80 -43 93 -46 13 -163 14 -163 2z m148 -27 c24 -17 29
-53 10 -72 -7 -7 -27 -12 -45 -12 -32 0 -33 1 -33 43 0 24 3 47 7 50 11 12 37
8 61 -9z m18 -125 c8 -6 14 -22 14 -35 0 -33 -27 -56 -64 -52 -30 3 -31 5 -34
57 l-3 54 36 -6 c20 -3 43 -11 51 -18z"/>
<path d="M3386 691 c-18 -7 -18 -8 -3 -14 15 -5 17 -23 17 -116 0 -94 -3 -111
-17 -120 -14 -8 -5 -10 37 -10 42 0 51 2 38 10 -16 9 -18 26 -18 134 0 134 -1
137 -54 116z"/>
<path d="M3229 602 c-15 -13 -20 -25 -16 -36 9 -23 31 -15 35 13 5 29 46 25
50 -4 2 -16 -8 -26 -42 -43 -31 -14 -48 -30 -52 -47 -11 -45 30 -70 76 -45 13
7 21 7 25 0 8 -13 42 -13 50 0 3 6 -1 17 -9 26 -11 10 -16 34 -16 75 0 55 -2
60 -26 69 -36 14 -49 13 -75 -8z m69 -104 c-2 -25 -8 -34 -26 -36 -33 -5 -41
26 -13 50 33 26 43 22 39 -14z"/>
<path d="M3522 608 c-15 -8 -22 -19 -20 -31 4 -29 26 -32 30 -5 4 32 44 37 53
7 4 -13 4 -25 -1 -26 -5 -2 -27 -14 -49 -26 -32 -18 -40 -28 -40 -51 0 -38 25
-54 63 -40 18 7 33 7 44 1 17 -11 48 -3 48 13 0 5 -7 10 -15 10 -12 0 -15 14
-15 64 0 56 -3 67 -22 80 -26 18 -44 19 -76 4z m68 -97 c0 -35 -12 -51 -36
-51 -29 0 -32 25 -7 52 21 24 43 23 43 -1z"/>
<path d="M3750 610 c-8 -5 -23 -7 -32 -4 -27 8 -63 -5 -49 -19 15 -15 14 -130
-1 -145 -9 -9 -2 -12 32 -12 34 0 41 3 32 12 -7 7 -12 38 -12 69 0 59 16 86
45 75 19 -7 21 -126 3 -144 -9 -9 -2 -12 32 -12 34 0 41 3 32 12 -7 7 -12 40
-12 79 0 59 -3 70 -22 83 -26 19 -28 19 -48 6z"/>
<path d="M3925 613 c-49 -12 -79 -72 -64 -127 17 -60 91 -77 128 -30 28 36 27
53 -2 26 -29 -28 -51 -28 -77 0 -24 26 -26 65 -4 96 19 28 39 28 58 1 20 -29
52 -19 36 11 -6 11 -15 20 -20 20 -4 0 -14 2 -22 4 -7 2 -22 1 -33 -1z"/>
<path d="M2441 601 c-9 -6 -10 -11 -2 -15 6 -4 11 -35 11 -71 0 -50 -4 -66
-17 -74 -14 -8 -5 -10 36 -11 47 0 52 2 37 13 -14 10 -17 25 -14 71 3 66 23
91 52 67 24 -20 22 -126 -1 -140 -14 -8 -7 -10 32 -11 33 0 45 3 36 9 -22 14
-27 113 -6 134 24 25 44 21 56 -10 13 -35 6 -113 -12 -124 -9 -6 4 -9 36 -9
39 1 46 3 33 11 -14 8 -18 24 -18 77 0 40 -5 73 -12 80 -15 15 -53 15 -81 1
-16 -9 -22 -9 -25 0 -5 15 -65 14 -80 -1 -9 -9 -12 -9 -12 0 0 14 -29 16 -49
3z"/>
<path d="M2737 602 c7 -4 29 -43 49 -87 34 -73 36 -81 22 -105 -9 -16 -23 -25
-38 -25 -28 0 -40 -29 -15 -38 38 -15 58 11 105 138 18 50 40 98 48 108 14 16
12 17 -19 17 -21 0 -29 -3 -21 -8 9 -7 9 -18 -4 -55 -9 -26 -19 -47 -23 -47
-9 0 -41 66 -41 85 0 7 6 16 13 18 6 3 -10 6 -38 6 -27 0 -45 -3 -38 -7z"/>
<path d="M4051 584 c-13 -16 -21 -41 -21 -64 0 -81 81 -120 135 -65 32 31 33
56 2 27 -31 -29 -61 -28 -86 4 -35 45 -28 54 39 54 52 0 60 3 60 18 0 54 -93
72 -129 26z m75 -1 c17 -17 16 -18 -15 -21 -40 -4 -48 2 -31 23 16 19 25 19
46 -2z"/>
<path d="M5675 690 c-8 -14 3 -30 21 -30 8 0 14 9 14 20 0 21 -24 28 -35 10z"/>
<path d="M6130 692 c0 -5 7 -12 15 -16 12 -4 15 -26 15 -112 0 -90 -3 -109
-17 -120 -16 -12 -10 -13 42 -14 57 0 58 1 37 16 -17 12 -22 25 -22 60 0 60
15 56 70 -16 39 -53 49 -60 79 -60 l34 0 -28 28 c-15 15 -40 43 -55 62 l-28
36 29 13 c47 21 51 88 7 112 -28 15 -178 25 -178 11z m138 -28 c44 -30 14 -94
-45 -94 -21 0 -23 5 -23 48 0 27 3 52 7 55 11 12 37 8 61 -9z"/>
<path d="M5561 631 c-16 -22 -20 -35 -13 -40 6 -4 12 -40 14 -81 3 -72 4 -75
29 -78 15 -2 31 4 40 14 13 16 12 17 -5 11 -27 -11 -36 8 -36 76 0 50 2 57 20
57 25 0 26 16 1 23 -11 2 -21 15 -23 28 -3 23 -4 23 -27 -10z"/>
<path d="M5185 606 c-19 -8 -25 -15 -17 -20 17 -10 16 -143 0 -149 -7 -3 10
-6 37 -6 39 0 46 2 33 10 -14 8 -18 23 -18 70 0 54 2 60 26 71 34 16 44 0 44
-74 0 -44 -4 -59 -17 -67 -14 -8 -7 -10 32 -11 33 0 45 3 36 9 -9 6 -16 32
-18 68 -6 84 -11 100 -32 106 -11 3 -31 -1 -45 -8 -20 -11 -25 -11 -28 0 -2
11 -9 11 -33 1z"/>
<path d="M5404 610 c-25 -10 -39 -39 -25 -53 13 -13 31 0 31 24 0 14 7 19 25
19 20 0 25 -5 25 -25 0 -18 -8 -28 -32 -38 -44 -18 -60 -40 -56 -74 2 -22 9
-29 31 -31 16 -2 35 2 43 9 13 10 17 10 24 0 5 -9 17 -11 34 -7 28 7 36 26 11
26 -12 0 -15 14 -15 64 0 39 -5 68 -13 74 -19 16 -60 22 -83 12z m56 -115 c0
-30 -3 -35 -24 -35 -32 0 -40 26 -16 50 29 29 40 25 40 -15z"/>
<path d="M6602 604 c-35 -24 -26 -62 23 -95 43 -29 53 -61 20 -67 -12 -3 -27
6 -42 24 l-23 29 0 -32 c0 -32 1 -33 41 -33 53 0 79 15 79 45 0 25 -7 33 -64
79 -17 13 -26 28 -22 34 12 19 42 14 59 -10 l16 -23 0 28 c1 15 -4 27 -11 27
-7 0 -22 3 -33 6 -11 2 -30 -3 -43 -12z"/>
<path d="M6982 605 c-14 -11 -21 -12 -24 -3 -3 7 -14 9 -32 4 -22 -5 -26 -10
-17 -19 6 -6 11 -39 11 -74 0 -48 -4 -64 -17 -72 -14 -8 -5 -10 36 -11 47 0
52 2 37 13 -14 10 -17 25 -14 72 3 58 4 60 31 60 15 0 32 7 37 15 12 19 14 17
52 -74 18 -43 37 -78 42 -78 5 0 23 34 39 74 16 40 33 79 39 86 8 9 4 12 -15
12 -18 0 -25 -4 -21 -13 3 -8 -3 -35 -14 -61 l-18 -48 -22 53 c-18 41 -20 54
-10 61 8 5 -5 8 -32 6 -25 -1 -51 1 -56 5 -6 3 -20 0 -32 -8z"/>
<path d="M5666 601 c-18 -7 -18 -8 -3 -14 25 -9 25 -132 0 -146 -14 -8 -7 -10
30 -11 44 0 47 1 33 16 -12 11 -16 36 -16 90 0 77 -3 81 -44 65z"/>
<path d="M5784 568 c13 -24 31 -64 41 -90 10 -27 21 -48 25 -48 4 0 20 30 35
68 14 37 33 77 41 90 14 21 13 22 -18 22 -20 0 -28 -3 -20 -8 9 -7 9 -18 -4
-55 -9 -26 -19 -47 -23 -47 -10 0 -42 91 -35 101 3 5 -11 9 -30 9 l-35 0 23
-42z"/>
<path d="M5980 586 c-28 -31 -32 -92 -7 -129 23 -36 83 -38 115 -4 28 29 29
54 2 27 -38 -38 -100 -12 -100 42 0 15 9 18 61 18 58 0 60 1 54 23 -16 52 -85
65 -125 23z m68 2 c20 -20 14 -28 -23 -28 -38 0 -46 13 -17 29 22 13 26 13 40
-1z"/>
<path d="M6420 586 c-28 -31 -32 -92 -7 -129 23 -36 83 -38 115 -4 28 29 29
54 2 27 -38 -38 -100 -12 -100 42 0 15 9 18 61 18 58 0 60 1 54 23 -16 52 -85
65 -125 23z m68 2 c20 -20 14 -28 -23 -28 -38 0 -46 13 -17 29 22 13 26 13 40
-1z"/>
<path d="M6750 590 c-37 -37 -38 -103 -3 -142 24 -27 84 -24 111 5 30 32 29
57 -1 29 -13 -12 -32 -22 -44 -22 -25 0 -53 30 -53 58 0 20 5 22 60 22 l60 0
-11 27 c-6 15 -16 31 -22 35 -23 15 -77 8 -97 -12z m80 -20 c0 -6 -16 -10 -35
-10 -38 0 -46 13 -18 29 19 10 53 -2 53 -19z"/>
<path d="M7251 584 c-28 -36 -29 -106 -1 -134 30 -30 85 -27 115 6 32 34 33
55 2 26 -13 -12 -33 -22 -45 -22 -27 0 -62 33 -62 60 0 18 7 20 60 20 65 0 72
8 44 48 -23 33 -86 31 -113 -4z m69 1 c17 -21 9 -27 -31 -23 -31 3 -32 4 -15
21 21 21 30 21 46 2z"/>
<path d="M9196 691 c-14 -5 -16 -10 -8 -15 7 -4 12 -20 12 -36 0 -26 -3 -28
-36 -27 -29 1 -41 -5 -60 -28 -33 -41 -33 -103 0 -134 21 -20 32 -22 85 -18
60 4 89 15 64 24 -10 3 -13 38 -13 124 0 124 -1 127 -44 110z m-8 -103 c18
-18 16 -124 -3 -132 -35 -13 -65 20 -65 74 0 59 36 90 68 58z"/>
<path d="M8582 604 c-35 -24 -26 -62 23 -95 43 -29 53 -61 20 -67 -12 -3 -27
6 -42 24 l-23 29 0 -32 c0 -32 1 -33 41 -33 53 0 79 15 79 45 0 25 -7 33 -64
79 -17 13 -26 28 -22 34 12 19 42 14 59 -10 l16 -23 0 28 c1 15 -4 27 -11 27
-7 0 -22 3 -33 6 -11 2 -30 -3 -43 -12z"/>
<path d="M8968 606 c-18 -10 -28 -11 -30 -4 -3 7 -15 8 -32 4 -22 -5 -26 -10
-17 -19 15 -15 14 -130 -1 -145 -9 -9 -1 -12 38 -12 38 1 45 3 32 11 -14 8
-18 23 -18 69 0 50 3 61 21 71 32 17 44 -3 44 -72 0 -42 -4 -63 -15 -69 -11
-7 0 -10 35 -10 35 0 46 3 35 10 -10 6 -17 32 -20 81 -4 58 -9 74 -25 85 -17
11 -25 11 -47 0z"/>
<path d="M8730 590 c-37 -37 -38 -103 -3 -142 24 -27 84 -24 111 5 30 32 29
57 -1 29 -13 -12 -32 -22 -44 -22 -25 0 -53 30 -53 58 0 20 5 22 60 22 l60 0
-11 27 c-6 15 -16 31 -22 35 -23 15 -77 8 -97 -12z m80 -20 c0 -6 -16 -10 -35
-10 -38 0 -46 13 -18 29 19 10 53 -2 53 -19z"/>
</g>
</svg>
