<svg xmlns="http://www.w3.org/2000/svg" xmlns:v="https://svgstorm.com"
viewBox = "0 0 1024 1024"
width="1024"
height="1024">
<g fill="None" fill-opacity="0.0" stroke="#4CACDF" stroke-opacity="1.00" stroke-width="0.3"><path d="
M 0.00 749.00 
C 9.72 745.71 21.22 749.92 27.00 739.00
C 26.40 742.33 24.37 745.31 25.00 749.00
C 30.12 747.14 30.99 743.38 31.00 739.00
C 41.66 747.19 49.76 720.90 53.00 714.00
C 62.10 720.09 58.77 731.84 59.00 740.00
C 60.63 738.25 62.18 735.66 62.00 733.00
C 71.84 732.80 77.06 722.35 75.00 714.00
C 77.39 715.40 78.40 718.44 79.00 721.00
C 84.24 718.78 79.91 707.82 76.00 713.00
C 77.69 707.33 82.99 701.48 83.00 696.00
C 85.33 697.42 84.66 699.80 84.00 702.00
C 87.90 703.67 92.84 706.94 92.00 712.00
C 87.42 708.91 88.67 709.92 87.00 715.00
C 84.96 714.19 84.03 711.73 82.00 711.00
C 84.25 715.35 88.89 721.19 94.00 722.00
C 96.28 717.64 95.27 713.29 100.00 711.00
C 98.61 714.94 98.36 718.22 96.00 722.00
C 99.70 721.86 99.47 714.18 104.00 717.00
C 103.09 712.80 106.14 710.14 110.00 710.00
C 101.39 737.59 64.54 740.99 56.00 768.00
C 88.53 746.59 124.01 729.89 157.00 709.00
C 157.53 711.46 156.42 714.13 154.00 715.00
C 155.04 719.45 159.38 723.96 156.00 729.00
C 157.28 729.28 159.50 728.24 160.00 730.00
C 163.91 729.85 167.36 730.11 171.00 729.00
C 179.74 716.41 153.36 714.35 171.00 700.00
C 167.78 701.65 151.03 706.59 154.00 701.00
C 150.01 706.33 149.39 699.86 146.00 704.00
C 183.88 650.82 275.80 649.86 311.92 589.92 C 348.04 529.97 421.28 508.19 454.00 449.00
C 429.76 477.35 397.93 496.08 369.00 517.00
C 365.80 517.64 369.47 513.27 366.00 513.00
C 367.07 520.08 362.30 513.87 360.00 515.00
C 394.32 445.88 488.63 431.80 511.00 354.00
C 488.53 367.28 458.85 374.54 454.00 403.00
C 457.36 405.17 444.12 423.38 432.77 425.77 C 421.42 428.16 408.87 442.58 400.00 446.00
C 402.38 442.20 406.68 439.76 409.00 436.00
C 403.63 436.19 399.56 444.65 395.00 444.00
C 391.61 448.03 394.80 445.51 398.00 445.00
C 396.00 448.89 398.54 448.25 401.00 449.00
C 388.63 454.67 380.81 465.87 367.00 469.00
C 364.25 479.31 353.26 487.24 346.00 494.00
C 350.92 484.30 356.64 475.53 362.00 467.00
C 352.25 479.98 329.53 484.58 321.00 501.00
C 337.05 477.66 336.72 446.74 353.00 424.00
C 370.79 406.21 398.13 389.45 409.25 366.25 C 420.36 343.04 451.13 327.69 461.00 304.00
C 463.39 298.27 466.17 294.12 471.00 290.00
C 486.71 270.88 497.83 246.40 515.00 229.00
C 518.78 239.27 528.26 246.40 535.00 255.00
C 544.63 263.91 557.87 268.39 564.00 281.00
C 566.40 282.13 566.28 275.65 567.00 280.00
C 568.37 279.23 567.39 277.54 569.00 277.00
C 581.03 290.67 579.29 309.52 590.31 323.70 C 601.32 337.87 601.85 360.74 605.93 377.07 C 610.00 393.41 617.92 413.55 622.92 428.08 C 627.93 442.60 635.74 469.08 647.00 463.00
C 664.45 489.96 698.50 501.71 714.00 529.00
C 717.79 529.81 720.88 528.32 724.00 527.00
C 739.59 541.50 750.51 560.48 772.00 569.00
C 783.12 559.93 786.58 586.25 797.00 589.00
C 797.53 585.98 798.78 581.23 803.00 582.00
C 802.30 585.52 804.01 588.40 806.00 591.00
C 808.42 589.70 810.04 587.43 811.00 585.00
C 815.00 586.54 819.64 585.87 824.00 586.00
C 825.54 592.62 838.11 604.83 844.00 598.00
C 859.71 609.33 873.20 623.65 892.08 610.08 C 910.95 596.50 919.82 631.70 932.25 638.75 C 944.67 645.80 965.07 671.46 977.00 657.00
C 982.19 661.87 988.68 657.53 994.00 662.00
C 994.63 676.75 1015.94 667.43 1023.00 676.00
C 1023.14 676.22 1024.00 676.00 1024.00 676.00
L 1024.00 675.00
C 1021.67 450.91 1023.67 224.85 1023.00 0.00
L 0.00 0.00
L 0.00 749.00
M 265.00 572.00 
C 250.09 571.50 239.48 593.51 226.00 595.00
C 228.73 592.11 226.96 591.92 224.00 593.00
C 225.37 589.20 227.11 585.61 229.00 582.00
C 239.24 582.55 251.01 563.44 260.00 559.00
C 261.96 555.41 262.86 551.52 265.00 548.00
C 268.00 548.50 270.54 547.43 273.00 546.00
C 270.36 529.36 301.16 539.12 289.25 548.25 C 277.34 557.38 272.91 559.67 265.00 572.00
M 224.00 594.00 
C 221.54 600.60 217.03 607.50 211.00 612.00
C 215.37 606.29 217.91 598.52 224.00 594.00
M 207.00 612.00 
C 202.42 621.69 199.26 634.37 202.00 645.00
C 204.20 642.45 205.17 638.82 208.00 637.00
C 206.66 644.15 200.45 648.92 197.00 655.00
C 191.85 648.20 196.54 640.67 197.00 633.00
C 204.04 636.37 194.39 613.84 207.00 612.00
M 184.00 620.00 
C 187.61 626.45 183.09 634.76 185.00 642.00
C 182.76 645.00 181.17 642.43 179.00 641.00
C 186.87 647.94 183.07 655.01 175.00 646.00
C 174.64 649.06 178.53 651.37 177.00 654.00
C 172.89 651.60 174.60 645.14 170.00 643.00
C 175.57 638.51 166.23 630.69 170.00 623.00
C 176.12 626.75 177.33 615.60 184.00 620.00
M 192.00 641.00 
C 191.09 634.55 185.18 627.50 189.00 621.00
C 193.62 625.74 196.31 635.41 192.00 641.00
M 165.00 646.00 
C 163.83 643.75 162.82 640.68 162.00 638.00
C 159.97 640.45 165.02 648.92 158.00 648.00
C 158.67 645.06 156.91 642.82 157.00 640.00
C 158.64 627.21 173.76 636.34 165.00 646.00
M 137.00 643.00 
C 140.12 648.46 125.19 663.18 138.00 658.00
C 138.38 665.15 132.96 678.38 141.00 668.00
C 141.14 672.29 140.00 676.31 138.00 680.00
C 149.04 678.69 159.56 651.32 165.32 663.68 C 171.08 676.04 147.88 694.23 147.00 688.00
C 144.96 695.93 137.97 702.41 129.00 703.00
C 132.65 697.50 138.06 677.69 128.00 681.00
C 132.51 676.99 133.29 665.97 125.00 671.00
C 127.61 667.87 124.23 662.11 129.00 661.00
C 127.38 663.91 128.51 667.09 131.00 669.00
C 133.13 662.66 128.46 657.74 128.00 651.00
C 131.19 648.65 131.88 642.86 137.00 643.00
M 105.00 669.00 
C 108.57 680.78 117.12 691.02 112.00 704.00
C 109.05 701.08 108.18 712.83 101.00 712.00
C 102.85 709.25 99.41 707.98 100.00 705.00
C 107.24 705.37 101.75 690.16 102.00 684.00
C 94.43 690.55 104.12 667.00 96.00 661.00
C 99.78 663.03 99.53 669.25 105.00 669.00
M 94.00 664.00 
C 94.50 667.68 97.93 670.12 98.00 674.00
C 92.40 678.22 91.94 684.61 89.00 690.00
C 85.45 684.44 89.60 678.11 88.00 673.00
C 81.83 681.09 81.49 693.99 75.00 701.00
C 72.13 696.18 78.12 692.55 72.00 690.00
C 76.54 682.43 86.91 677.03 87.00 667.00
C 90.01 667.58 92.40 666.02 94.00 664.00
M 72.00 686.00 
C 56.70 693.62 83.42 716.36 64.00 715.00
C 62.45 710.08 70.26 698.23 61.00 701.00
C 64.72 696.41 64.95 686.80 72.00 686.00 Z"/>
</g>
<g fill="None" fill-opacity="0.0" stroke="#77C7EF" stroke-opacity="1.00" stroke-width="0.3"><path d="
M 1024.00 675.00 
L 1024.00 0.00
L 1023.00 0.00
C 1023.67 224.85 1021.67 450.91 1024.00 675.00 Z"/>
</g>
<g fill="None" fill-opacity="0.0" stroke="#95DCFB" stroke-opacity="1.00" stroke-width="0.3"><path d="
M 471.00 290.00 
C 489.61 274.10 501.06 259.89 513.00 240.00
C 515.38 242.23 516.29 246.20 520.00 247.00
C 519.74 244.56 518.24 242.48 518.00 240.00
C 524.38 242.68 529.11 253.30 535.00 255.00
C 528.26 246.40 518.78 239.27 515.00 229.00
C 497.83 246.40 486.71 270.88 471.00 290.00 Z"/>
</g>
<g fill="None" fill-opacity="0.0" stroke="#6FC9FC" stroke-opacity="1.00" stroke-width="0.3"><path d="
M 471.00 290.00 
C 466.17 294.12 463.39 298.27 461.00 304.00
C 475.43 290.39 502.42 289.18 520.00 288.00
C 509.31 293.11 503.84 302.80 494.00 309.00
C 507.42 314.37 482.79 319.72 481.00 328.00
C 483.46 331.88 456.22 345.06 448.75 359.75 C 441.28 374.44 416.12 379.82 403.31 390.30 C 390.49 400.79 369.99 411.33 363.00 422.00
C 359.78 422.17 355.44 425.02 353.00 424.00
C 336.72 446.74 337.05 477.66 321.00 501.00
C 329.53 484.58 352.25 479.98 362.00 467.00
C 363.22 465.10 364.67 463.55 364.00 461.00
C 378.44 457.11 388.84 441.21 401.00 431.00
C 402.91 435.94 400.24 440.65 395.00 444.00
C 399.56 444.65 403.63 436.19 409.00 436.00
C 406.68 439.76 402.38 442.20 400.00 446.00
C 408.87 442.58 421.42 428.16 432.77 425.77 C 444.12 423.38 457.36 405.17 454.00 403.00
C 458.85 374.54 488.53 367.28 511.00 354.00
C 488.63 431.80 394.32 445.88 360.00 515.00
C 362.30 513.87 367.07 520.08 366.00 513.00
C 369.47 513.27 365.80 517.64 369.00 517.00
C 397.93 496.08 429.76 477.35 454.00 449.00
C 421.28 508.19 348.04 529.97 311.92 589.92 C 275.80 649.86 183.88 650.82 146.00 704.00
C 149.39 699.86 150.01 706.33 154.00 701.00
C 151.03 706.59 167.78 701.65 171.00 700.00
C 174.50 697.15 178.46 694.74 182.00 692.00
C 205.43 673.87 235.00 667.82 259.00 651.00
C 255.53 650.06 253.36 653.46 250.00 653.00
C 298.45 628.66 353.20 606.04 392.25 565.25 C 431.30 524.46 458.11 482.52 501.00 444.00
C 501.32 443.80 501.91 443.35 502.00 443.00
C 504.56 432.56 516.41 423.84 521.77 413.77 C 527.13 403.70 530.54 390.24 536.00 381.00
C 536.07 379.40 533.69 381.66 533.00 381.00
C 534.15 377.82 537.14 375.47 539.00 373.00
C 544.81 349.22 578.72 334.56 572.00 303.00
C 561.22 301.13 569.21 287.55 567.00 280.00
C 566.28 275.65 566.40 282.13 564.00 281.00
C 557.87 268.39 544.63 263.91 535.00 255.00
C 529.11 253.30 524.38 242.68 518.00 240.00
C 518.24 242.48 519.74 244.56 520.00 247.00
C 516.29 246.20 515.38 242.23 513.00 240.00
C 501.06 259.89 489.61 274.10 471.00 290.00 Z"/>
</g>
<g fill="None" fill-opacity="0.0" stroke="#1C71C4" stroke-opacity="1.00" stroke-width="0.3"><path d="
M 567.00 280.00 
C 569.21 287.55 561.22 301.13 572.00 303.00
C 578.72 334.56 544.81 349.22 539.00 373.00
C 538.20 376.27 537.45 378.54 536.00 381.00
C 530.54 390.24 527.13 403.70 521.77 413.77 C 516.41 423.84 504.56 432.56 502.00 443.00
C 502.43 442.36 503.18 441.36 504.00 441.00
C 506.03 447.71 502.54 457.36 509.00 461.00
C 506.98 457.91 509.54 455.55 513.00 456.00
C 515.40 464.73 521.33 472.37 524.00 481.00
C 521.96 480.19 521.03 477.73 519.00 477.00
C 519.16 482.81 524.46 481.54 519.00 486.00
C 521.01 487.90 522.84 484.63 524.00 486.00
C 525.25 491.46 528.18 496.40 529.00 502.00
C 532.96 497.36 524.41 488.32 527.00 483.00
C 532.84 492.99 534.18 505.00 540.00 515.00
C 538.03 517.88 537.51 511.50 536.00 514.00
C 537.10 516.25 537.31 519.96 541.00 519.00
C 541.65 514.66 539.07 502.65 546.00 498.00
C 551.97 508.64 566.44 521.57 574.00 534.00
C 565.71 520.76 557.27 505.71 548.00 494.00
C 549.75 492.92 552.22 491.89 552.00 489.00
C 561.49 497.29 572.43 505.03 582.00 514.00
C 576.80 500.26 566.17 485.82 568.00 471.00
C 569.96 472.02 566.48 475.45 570.00 476.00
C 570.35 472.85 570.46 468.70 566.00 470.00
C 567.36 465.22 560.52 462.44 565.00 457.00
C 553.43 446.61 554.85 427.06 546.00 414.00
C 548.10 414.07 549.70 417.01 550.00 419.00
C 552.44 413.88 556.33 423.14 558.00 419.00
C 572.51 445.12 586.60 475.25 605.00 495.00
C 613.13 510.19 616.00 527.75 622.00 544.00
C 619.70 525.63 614.55 504.95 610.00 486.00
C 616.24 487.62 619.72 494.53 625.00 498.00
C 620.06 473.87 598.78 457.86 588.00 437.00
C 593.84 441.96 596.92 450.69 602.00 455.00
C 601.89 450.76 607.23 442.28 614.00 444.00
C 611.63 441.30 610.69 436.13 606.00 437.00
C 608.91 436.18 607.48 433.05 610.00 433.00
C 615.00 443.57 625.25 453.78 631.00 461.00
C 628.88 467.43 632.83 471.09 634.00 477.00
C 630.38 477.23 631.67 470.77 628.00 471.00
C 625.86 478.00 625.30 487.15 627.00 495.00
C 629.87 493.29 630.25 496.24 633.00 497.00
C 636.42 494.66 634.72 495.48 635.00 492.00
C 638.75 496.77 636.55 501.98 638.00 509.00
C 643.43 506.95 635.12 496.33 643.00 497.00
C 640.56 496.19 636.98 493.78 642.00 495.00
C 638.81 492.75 641.02 486.71 637.00 486.00
C 639.08 481.97 641.10 480.12 646.00 480.00
C 653.93 492.80 668.45 505.06 665.00 522.00
C 668.20 522.23 672.40 529.24 673.00 523.00
C 674.79 526.91 676.70 528.28 681.00 527.00
C 684.78 540.79 694.03 554.88 710.00 558.00
C 706.71 554.28 703.91 550.14 704.00 545.00
C 706.70 546.89 707.28 548.92 709.00 548.00
C 705.27 546.16 710.19 534.53 716.00 541.00
C 715.38 536.59 714.78 533.03 714.00 529.00
C 698.50 501.71 664.45 489.96 647.00 463.00
C 635.74 469.08 627.93 442.60 622.92 428.08 C 617.92 413.55 610.00 393.41 605.93 377.07 C 601.85 360.74 601.32 337.87 590.31 323.70 C 579.29 309.52 581.03 290.67 569.00 277.00
C 567.39 277.54 568.37 279.23 567.00 280.00
M 589.00 375.00 
C 589.75 372.09 589.10 370.10 589.00 367.00
C 591.08 381.38 600.61 394.48 603.00 409.00
C 595.88 403.12 590.84 391.87 586.00 383.00
C 592.57 384.32 576.88 369.52 577.00 363.00
C 581.89 366.09 583.90 372.11 589.00 375.00 Z"/>
</g>
<g fill="None" fill-opacity="0.0" stroke="#93DAFD" stroke-opacity="1.00" stroke-width="0.3"><path d="
M 461.00 304.00 
C 451.13 327.69 420.36 343.04 409.25 366.25 C 398.13 389.45 370.79 406.21 353.00 424.00
C 355.44 425.02 359.78 422.17 363.00 422.00
C 369.99 411.33 390.49 400.79 403.31 390.30 C 416.12 379.82 441.28 374.44 448.75 359.75 C 456.22 345.06 483.46 331.88 481.00 328.00
C 482.79 319.72 507.42 314.37 494.00 309.00
C 503.84 302.80 509.31 293.11 520.00 288.00
C 502.42 289.18 475.43 290.39 461.00 304.00 Z"/>
</g>
<g fill="None" fill-opacity="0.0" stroke="#2B87DA" stroke-opacity="1.00" stroke-width="0.3"><path d="
M 589.00 375.00 
C 583.90 372.11 581.89 366.09 577.00 363.00
C 576.88 369.52 592.57 384.32 586.00 383.00
C 590.84 391.87 595.88 403.12 603.00 409.00
C 600.61 394.48 591.08 381.38 589.00 367.00
C 589.10 370.10 589.75 372.09 589.00 375.00 Z"/>
</g>
<g fill="None" fill-opacity="0.0" stroke="#4699D2" stroke-opacity="1.00" stroke-width="0.3"><path d="
M 536.00 381.00 
C 537.45 378.54 538.20 376.27 539.00 373.00
C 537.14 375.47 534.15 377.82 533.00 381.00
C 533.69 381.66 536.07 379.40 536.00 381.00 Z"/>
</g>
<g fill="None" fill-opacity="0.0" stroke="#135CAC" stroke-opacity="1.00" stroke-width="0.3"><path d="
M 502.00 443.00 
C 501.91 443.35 501.32 443.80 501.00 444.00
C 492.91 454.38 491.24 470.08 489.00 483.00
C 484.27 493.14 460.26 512.37 465.00 521.00
C 462.50 522.47 460.34 524.34 458.00 526.00
C 462.42 547.29 474.88 564.78 463.00 584.00
C 470.14 569.60 487.26 569.53 501.00 568.00
C 497.88 575.01 491.78 581.98 485.00 586.00
C 494.49 587.74 503.86 594.11 511.00 601.00
C 494.95 591.99 479.22 587.51 465.00 595.00
C 463.56 598.66 460.50 601.75 461.00 606.00
C 463.13 613.40 477.33 617.94 479.00 626.00
C 476.81 626.76 475.68 624.70 474.00 624.00
C 475.27 625.66 469.71 638.60 473.00 643.00
C 469.53 639.36 466.14 637.96 466.00 643.00
C 463.41 638.63 463.97 633.45 462.00 629.00
C 458.52 633.42 455.97 641.63 451.00 646.00
C 452.55 648.46 455.14 642.94 455.00 647.00
C 450.97 648.48 456.91 650.04 456.00 653.00
C 451.93 649.89 444.01 646.96 444.00 655.00
C 446.96 654.72 446.90 650.80 450.00 651.00
C 449.40 654.26 450.83 656.91 451.00 660.00
C 448.79 655.45 439.92 655.30 444.00 662.00
C 425.86 667.71 433.55 645.36 444.00 641.00
C 441.02 638.81 440.48 630.48 436.00 635.00
C 436.17 631.69 438.00 627.95 433.00 628.00
C 432.86 616.20 423.88 606.38 418.00 597.00
C 418.54 601.25 422.72 604.36 422.00 609.00
C 418.41 608.82 415.39 621.32 418.00 624.00
C 420.06 619.98 417.81 613.72 425.00 614.00
C 424.75 616.36 423.31 619.00 421.00 620.00
C 423.38 623.73 421.01 630.56 416.00 628.00
C 419.24 636.53 391.49 648.68 418.00 641.00
C 418.44 643.96 415.05 644.47 415.00 647.00
C 422.38 647.42 425.18 634.60 433.00 639.00
C 432.39 643.66 429.94 648.23 426.00 651.00
C 424.49 648.55 429.74 646.62 427.00 645.00
C 424.07 646.42 423.79 650.05 424.00 653.00
C 420.94 650.56 420.72 656.16 422.00 657.00
C 420.51 658.77 417.41 655.99 415.00 657.00
C 414.36 662.13 418.30 666.34 421.00 670.00
C 419.93 671.87 416.62 671.57 416.00 674.00
C 418.22 676.25 420.48 673.54 423.00 674.00
C 425.69 677.05 429.06 681.00 427.00 685.00
C 424.35 683.11 424.57 680.56 424.00 678.00
C 420.77 678.66 418.29 680.76 415.00 681.00
C 414.78 678.05 413.09 675.07 415.00 672.00
C 412.69 670.20 410.32 668.22 408.00 671.00
C 404.63 665.32 404.74 658.67 405.00 652.00
C 398.75 663.17 404.21 630.62 395.00 643.00
C 392.75 637.67 388.46 632.90 386.00 628.00
C 387.61 640.96 407.52 652.04 395.00 657.00
C 396.83 660.99 396.12 663.84 402.00 664.00
C 399.31 672.92 414.92 674.84 406.00 683.00
C 403.65 682.28 398.99 678.97 401.00 684.00
C 391.42 676.69 396.09 657.58 390.00 650.00
C 386.43 656.48 391.49 661.18 393.00 667.00
C 387.40 667.64 382.66 664.57 384.00 659.00
C 382.68 661.09 380.71 662.60 380.00 665.00
C 384.72 666.41 388.84 669.44 391.00 674.00
C 385.40 673.48 379.44 660.44 375.00 671.00
C 369.65 661.51 378.63 651.91 385.00 646.00
C 382.24 641.18 383.99 634.40 385.00 629.00
C 381.51 630.32 381.83 636.25 376.00 634.00
C 381.02 640.23 371.87 644.25 371.00 650.00
C 363.86 643.50 362.92 654.97 363.00 660.00
C 366.20 657.73 364.10 652.38 367.00 650.00
C 373.72 656.45 361.77 660.90 361.00 667.00
C 364.48 665.35 366.08 660.49 370.00 660.00
C 368.48 664.73 368.08 665.56 370.00 669.00
C 363.83 669.44 363.37 676.56 358.00 678.00
C 358.81 675.96 361.27 675.03 362.00 673.00
C 357.68 670.38 357.98 663.45 362.00 661.00
C 357.66 657.92 354.79 661.26 350.00 661.00
C 352.58 666.92 359.17 672.67 356.00 679.00
C 352.09 675.65 354.22 668.97 348.00 669.00
C 349.00 672.24 351.63 674.31 350.00 678.00
C 346.34 674.90 344.02 666.74 340.00 673.00
C 339.37 670.28 342.07 668.59 342.00 666.00
C 336.80 666.89 334.12 673.59 337.00 678.00
C 332.40 675.57 332.04 675.20 330.00 681.00
C 327.78 675.87 335.14 668.32 332.00 663.00
C 329.72 665.58 328.56 669.05 325.00 670.00
C 325.77 673.62 326.87 678.71 323.00 681.00
C 322.35 678.56 323.10 674.81 321.00 672.00
C 327.18 667.29 335.09 651.76 342.00 658.00
C 337.29 644.67 353.96 646.83 357.00 638.00
C 354.66 638.06 350.70 643.11 353.00 638.00
C 341.30 645.78 329.94 655.00 321.00 666.00
C 310.61 661.55 304.77 678.12 296.00 683.00
C 294.86 684.59 292.44 692.82 299.00 691.00
C 297.28 695.39 298.14 702.99 292.00 704.00
C 292.57 699.37 294.83 692.69 291.00 689.00
C 290.30 691.62 285.92 699.75 291.00 695.00
C 291.72 698.10 290.06 700.75 287.00 699.00
C 285.28 702.04 287.19 704.69 287.00 708.00
C 282.22 708.94 283.37 703.92 281.00 701.00
C 278.35 703.47 282.03 707.03 282.00 710.00
C 276.54 711.21 279.35 704.42 276.00 703.00
C 273.93 706.17 278.26 710.15 276.00 714.00
C 278.13 710.06 279.75 714.03 279.00 717.00
C 270.62 714.31 270.29 702.08 275.00 696.00
C 270.72 702.48 264.10 710.13 258.00 716.00
C 267.10 712.42 254.24 717.99 256.00 721.00
C 252.29 719.29 252.58 720.92 249.00 720.00
C 249.45 722.52 249.88 724.60 249.00 727.00
C 252.47 727.69 253.42 722.89 257.00 723.00
C 254.94 726.69 258.10 734.87 252.00 734.00
C 253.07 731.69 254.55 729.36 252.00 728.00
C 248.63 733.19 247.60 727.28 247.00 724.00
C 246.22 729.01 240.99 731.28 237.00 734.00
C 236.42 727.92 240.22 723.49 241.00 718.00
C 238.71 723.49 236.55 719.46 232.00 722.00
C 233.05 724.82 235.11 725.03 237.00 723.00
C 235.93 729.57 224.19 735.30 230.00 742.00
C 226.98 742.61 227.43 738.51 225.00 738.00
C 220.79 738.67 219.64 745.46 217.00 749.00
C 215.49 745.25 212.20 746.40 209.00 747.00
C 217.25 747.11 216.81 757.19 209.00 758.00
C 210.29 755.07 212.56 752.49 212.00 749.00
C 185.47 761.13 160.88 785.19 138.00 805.00
C 154.91 779.70 183.62 766.99 202.00 744.00
C 203.74 741.69 223.64 718.63 235.00 708.00
C 234.54 705.49 225.22 705.06 223.00 705.00
C 213.54 707.31 206.29 707.37 198.00 713.00
C 190.19 718.30 180.09 726.24 171.00 729.00
C 167.36 730.11 163.91 729.85 160.00 730.00
C 127.94 731.22 115.22 767.23 85.30 776.30 C 55.39 785.38 28.85 801.93 0.00 808.00
L 0.00 898.00
C 40.28 878.62 96.14 887.60 131.23 854.23 C 166.32 820.86 206.42 812.84 246.00 848.00
C 271.02 854.94 299.22 872.68 327.00 854.00
C 325.57 854.09 322.01 852.69 321.00 852.00
C 323.32 850.73 326.99 849.32 329.00 852.00
C 329.47 848.89 327.72 846.95 332.00 850.00
C 329.62 844.15 337.92 849.26 342.00 843.00
C 337.64 839.06 345.57 839.47 340.00 836.00
C 344.34 835.65 344.93 832.12 347.00 830.00
C 342.90 829.99 342.00 830.88 341.00 826.00
C 338.95 827.61 342.20 830.30 339.00 831.00
C 339.12 827.44 334.80 830.51 333.00 831.00
C 333.93 826.96 339.91 826.33 342.00 823.00
C 333.91 825.24 327.52 832.31 319.00 833.00
C 332.11 821.12 339.06 801.58 358.00 797.00
C 357.34 791.35 378.68 778.93 381.00 781.00
C 383.36 769.62 393.39 760.85 400.00 753.00
C 401.45 755.02 401.40 754.55 403.00 753.00
C 404.94 741.66 415.75 728.69 423.00 724.00
C 414.21 715.64 429.11 700.85 434.00 692.00
C 441.13 685.40 452.63 678.26 460.00 673.00
C 464.02 669.10 467.95 663.96 472.00 660.00
C 473.76 656.20 473.55 654.74 474.00 651.00
C 474.59 646.17 477.19 643.30 482.00 643.00
C 482.31 641.14 480.85 637.70 485.00 637.00
C 487.39 639.27 486.35 643.16 487.00 645.00
C 491.62 642.51 495.44 638.38 501.00 638.00
C 505.29 647.03 515.09 645.48 523.00 647.00
C 537.72 638.88 554.64 644.18 569.01 634.01 C 583.37 623.83 600.85 635.03 616.00 632.00
C 616.62 631.63 617.66 630.77 618.00 630.00
C 605.01 623.52 590.12 618.36 579.00 607.00
C 565.99 597.82 547.48 589.04 536.00 577.00
C 532.79 589.31 547.52 597.67 559.00 608.00
C 533.40 596.54 523.86 568.32 506.00 549.00
C 499.77 539.35 482.51 534.21 478.00 522.00
C 498.53 541.10 526.57 543.34 548.00 560.00
C 565.33 568.20 579.29 585.61 594.00 597.00
C 607.55 602.85 629.20 621.39 644.00 622.00
C 653.44 618.47 662.51 616.00 673.00 616.00
C 681.07 616.00 689.27 616.42 697.00 615.00
C 639.64 668.97 576.85 718.91 516.00 769.00
C 508.24 777.48 495.47 780.17 487.00 788.00
C 484.57 790.25 481.68 792.22 479.00 794.00
C 512.40 801.92 547.54 801.07 579.00 787.00
C 576.29 793.35 574.93 802.26 567.00 805.00
C 571.94 805.98 574.91 801.15 579.00 800.00
C 583.76 807.36 600.33 788.00 612.08 778.08 C 623.84 768.16 639.94 757.24 656.07 753.07 C 672.21 748.90 695.25 747.74 709.70 737.70 C 724.14 727.65 737.00 717.08 753.00 711.00
C 726.21 711.49 712.29 697.74 694.00 681.00
C 696.41 671.52 700.90 662.75 705.00 654.00
C 696.95 658.66 706.47 637.64 709.00 633.00
C 705.69 626.95 712.43 622.07 712.00 616.00
C 709.91 604.37 734.01 619.66 744.25 628.75 C 754.49 637.84 773.63 643.70 785.25 653.75 C 796.87 663.81 807.32 677.34 823.23 680.77 C 839.14 684.20 856.45 690.36 871.25 698.75 C 886.05 707.14 914.66 692.53 929.00 699.00
C 942.86 702.44 963.73 733.16 976.00 723.00
C 980.32 727.43 977.17 725.28 982.00 725.00
C 980.59 722.11 979.33 720.16 978.00 717.00
C 991.66 724.00 1006.68 728.33 1023.00 727.00
C 1021.56 710.91 1021.55 692.09 1023.00 676.00
C 1015.94 667.43 994.63 676.75 994.00 662.00
C 988.68 657.53 982.19 661.87 977.00 657.00
C 965.07 671.46 944.67 645.80 932.25 638.75 C 919.82 631.70 910.95 596.50 892.08 610.08 C 873.20 623.65 859.71 609.33 844.00 598.00
C 838.11 604.83 825.54 592.62 824.00 586.00
C 819.64 585.87 815.00 586.54 811.00 585.00
C 810.04 587.43 808.42 589.70 806.00 591.00
C 804.01 588.40 802.30 585.52 803.00 582.00
C 798.78 581.23 797.53 585.98 797.00 589.00
C 786.58 586.25 783.12 559.93 772.00 569.00
C 750.51 560.48 739.59 541.50 724.00 527.00
C 720.88 528.32 717.79 529.81 714.00 529.00
C 714.78 533.03 715.38 536.59 716.00 541.00
C 710.19 534.53 705.27 546.16 709.00 548.00
C 707.28 548.92 706.70 546.89 704.00 545.00
C 703.91 550.14 706.71 554.28 710.00 558.00
C 694.03 554.88 684.78 540.79 681.00 527.00
C 676.70 528.28 674.79 526.91 673.00 523.00
C 672.40 529.24 668.20 522.23 665.00 522.00
C 668.45 505.06 653.93 492.80 646.00 480.00
C 641.10 480.12 639.08 481.97 637.00 486.00
C 641.02 486.71 638.81 492.75 642.00 495.00
C 636.98 493.78 640.56 496.19 643.00 497.00
C 635.12 496.33 643.43 506.95 638.00 509.00
C 636.55 501.98 638.75 496.77 635.00 492.00
C 634.72 495.48 636.42 494.66 633.00 497.00
C 630.25 496.24 629.87 493.29 627.00 495.00
C 625.30 487.15 625.86 478.00 628.00 471.00
C 631.67 470.77 630.38 477.23 634.00 477.00
C 632.83 471.09 628.88 467.43 631.00 461.00
C 625.25 453.78 615.00 443.57 610.00 433.00
C 607.48 433.05 608.91 436.18 606.00 437.00
C 610.69 436.13 611.63 441.30 614.00 444.00
C 607.23 442.28 601.89 450.76 602.00 455.00
C 596.92 450.69 593.84 441.96 588.00 437.00
C 598.78 457.86 620.06 473.87 625.00 498.00
C 619.72 494.53 616.24 487.62 610.00 486.00
C 614.55 504.95 619.70 525.63 622.00 544.00
C 616.00 527.75 613.13 510.19 605.00 495.00
C 586.60 475.25 572.51 445.12 558.00 419.00
C 556.33 423.14 552.44 413.88 550.00 419.00
C 549.70 417.01 548.10 414.07 546.00 414.00
C 554.85 427.06 553.43 446.61 565.00 457.00
C 560.52 462.44 567.36 465.22 566.00 470.00
C 570.46 468.70 570.35 472.85 570.00 476.00
C 566.48 475.45 569.96 472.02 568.00 471.00
C 566.17 485.82 576.80 500.26 582.00 514.00
C 572.43 505.03 561.49 497.29 552.00 489.00
C 552.22 491.89 549.75 492.92 548.00 494.00
C 557.27 505.71 565.71 520.76 574.00 534.00
C 566.44 521.57 551.97 508.64 546.00 498.00
C 539.07 502.65 541.65 514.66 541.00 519.00
C 537.31 519.96 537.10 516.25 536.00 514.00
C 537.51 511.50 538.03 517.88 540.00 515.00
C 534.18 505.00 532.84 492.99 527.00 483.00
C 524.41 488.32 532.96 497.36 529.00 502.00
C 528.18 496.40 525.25 491.46 524.00 486.00
C 522.84 484.63 521.01 487.90 519.00 486.00
C 524.46 481.54 519.16 482.81 519.00 477.00
C 521.03 477.73 521.96 480.19 524.00 481.00
C 521.33 472.37 515.40 464.73 513.00 456.00
C 509.54 455.55 506.98 457.91 509.00 461.00
C 502.54 457.36 506.03 447.71 504.00 441.00
C 503.18 441.36 502.43 442.36 502.00 443.00
M 539.00 604.00 
C 527.73 595.70 515.59 586.82 508.00 574.00
C 518.37 583.73 530.36 593.44 539.00 604.00 Z"/>
</g>
<g fill="None" fill-opacity="0.0" stroke="#2F95E1" stroke-opacity="1.00" stroke-width="0.3"><path d="
M 362.00 467.00 
C 356.64 475.53 350.92 484.30 346.00 494.00
C 353.26 487.24 364.25 479.31 367.00 469.00
C 380.81 465.87 388.63 454.67 401.00 449.00
C 398.54 448.25 396.00 448.89 398.00 445.00
C 394.80 445.51 391.61 448.03 395.00 444.00
C 400.24 440.65 402.91 435.94 401.00 431.00
C 388.84 441.21 378.44 457.11 364.00 461.00
C 364.67 463.55 363.22 465.10 362.00 467.00 Z"/>
</g>
<g fill="None" fill-opacity="0.0" stroke="#3EA2EB" stroke-opacity="1.00" stroke-width="0.3"><path d="
M 182.00 692.00 
C 191.96 691.43 203.49 702.37 198.00 713.00
C 206.29 707.37 213.54 707.31 223.00 705.00
C 251.40 698.07 273.63 678.76 292.00 656.00
C 287.27 653.16 281.39 648.24 279.00 643.00
C 326.28 632.80 365.29 594.04 412.00 586.00
C 429.11 590.70 443.09 609.89 459.00 617.00
C 458.68 617.18 460.55 607.39 461.00 606.00
C 460.50 601.75 463.56 598.66 465.00 595.00
C 479.22 587.51 494.95 591.99 511.00 601.00
C 503.86 594.11 494.49 587.74 485.00 586.00
C 491.78 581.98 497.88 575.01 501.00 568.00
C 487.26 569.53 470.14 569.60 463.00 584.00
C 474.88 564.78 462.42 547.29 458.00 526.00
C 460.34 524.34 462.50 522.47 465.00 521.00
C 460.26 512.37 484.27 493.14 489.00 483.00
C 491.24 470.08 492.91 454.38 501.00 444.00
C 458.11 482.52 431.30 524.46 392.25 565.25 C 353.20 606.04 298.45 628.66 250.00 653.00
C 253.36 653.46 255.53 650.06 259.00 651.00
C 235.00 667.82 205.43 673.87 182.00 692.00 Z"/>
</g>
<g fill="None" fill-opacity="0.0" stroke="#2B86D7" stroke-opacity="1.00" stroke-width="0.3"><path d="
M 506.00 549.00 
C 505.80 548.49 505.34 545.29 504.00 544.00
C 514.60 539.42 528.91 566.92 534.00 553.00
C 538.83 554.56 543.35 561.99 548.00 560.00
C 526.57 543.34 498.53 541.10 478.00 522.00
C 482.51 534.21 499.77 539.35 506.00 549.00 Z"/>
</g>
<g fill="None" fill-opacity="0.0" stroke="#217FD1" stroke-opacity="1.00" stroke-width="0.3"><path d="
M 265.00 572.00 
C 272.91 559.67 277.34 557.38 289.25 548.25 C 301.16 539.12 270.36 529.36 273.00 546.00
C 270.54 547.43 268.00 548.50 265.00 548.00
C 262.86 551.52 261.96 555.41 260.00 559.00
C 251.01 563.44 239.24 582.55 229.00 582.00
C 227.11 585.61 225.37 589.20 224.00 593.00
C 226.96 591.92 228.73 592.11 226.00 595.00
C 239.48 593.51 250.09 571.50 265.00 572.00 Z"/>
</g>
<g fill="None" fill-opacity="0.0" stroke="#1A71C4" stroke-opacity="1.00" stroke-width="0.3"><path d="
M 506.00 549.00 
C 523.86 568.32 533.40 596.54 559.00 608.00
C 547.52 597.67 532.79 589.31 536.00 577.00
C 547.48 589.04 565.99 597.82 579.00 607.00
C 577.82 605.62 576.85 603.61 575.00 603.00
C 574.76 599.41 578.45 602.43 580.00 603.00
C 567.56 589.44 542.36 585.01 536.00 565.00
C 549.25 578.18 564.58 589.02 581.00 596.00
C 578.15 590.56 570.62 588.99 569.00 583.00
C 577.23 587.65 584.75 593.96 594.00 597.00
C 579.29 585.61 565.33 568.20 548.00 560.00
C 543.35 561.99 538.83 554.56 534.00 553.00
C 528.91 566.92 514.60 539.42 504.00 544.00
C 505.34 545.29 505.80 548.49 506.00 549.00 Z"/>
</g>
<g fill="None" fill-opacity="0.0" stroke="#2482D4" stroke-opacity="1.00" stroke-width="0.3"><path d="
M 579.00 607.00 
C 590.12 618.36 605.01 623.52 618.00 630.00
C 617.66 630.77 616.62 631.63 616.00 632.00
C 626.68 629.86 634.32 625.62 644.00 622.00
C 629.20 621.39 607.55 602.85 594.00 597.00
C 584.75 593.96 577.23 587.65 569.00 583.00
C 570.62 588.99 578.15 590.56 581.00 596.00
C 564.58 589.02 549.25 578.18 536.00 565.00
C 542.36 585.01 567.56 589.44 580.00 603.00
C 578.45 602.43 574.76 599.41 575.00 603.00
C 576.85 603.61 577.82 605.62 579.00 607.00 Z"/>
</g>
<g fill="None" fill-opacity="0.0" stroke="#2579CA" stroke-opacity="1.00" stroke-width="0.3"><path d="
M 539.00 604.00 
C 530.36 593.44 518.37 583.73 508.00 574.00
C 515.59 586.82 527.73 595.70 539.00 604.00 Z"/>
</g>
<g fill="None" fill-opacity="0.0" stroke="#3291DF" stroke-opacity="1.00" stroke-width="0.3"><path d="
M 223.00 705.00 
C 225.22 705.06 234.54 705.49 235.00 708.00
C 236.60 706.27 238.54 704.00 240.00 702.00
C 243.99 703.41 250.38 703.66 251.00 698.00
C 264.92 700.68 277.12 691.17 285.00 680.00
C 288.65 680.82 291.77 686.33 296.00 683.00
C 304.77 678.12 310.61 661.55 321.00 666.00
C 329.94 655.00 341.30 645.78 353.00 638.00
C 361.79 632.15 365.87 621.61 374.00 615.00
C 391.41 619.04 413.41 603.10 412.00 586.00
C 365.29 594.04 326.28 632.80 279.00 643.00
C 281.39 648.24 287.27 653.16 292.00 656.00
C 273.63 678.76 251.40 698.07 223.00 705.00 Z"/>
</g>
<g fill="None" fill-opacity="0.0" stroke="#0A458D" stroke-opacity="1.00" stroke-width="0.3"><path d="
M 353.00 638.00 
C 350.70 643.11 354.66 638.06 357.00 638.00
C 353.96 646.83 337.29 644.67 342.00 658.00
C 335.09 651.76 327.18 667.29 321.00 672.00
C 323.10 674.81 322.35 678.56 323.00 681.00
C 326.87 678.71 325.77 673.62 325.00 670.00
C 328.56 669.05 329.72 665.58 332.00 663.00
C 335.14 668.32 327.78 675.87 330.00 681.00
C 332.04 675.20 332.40 675.57 337.00 678.00
C 334.12 673.59 336.80 666.89 342.00 666.00
C 342.07 668.59 339.37 670.28 340.00 673.00
C 344.02 666.74 346.34 674.90 350.00 678.00
C 351.63 674.31 349.00 672.24 348.00 669.00
C 354.22 668.97 352.09 675.65 356.00 679.00
C 359.17 672.67 352.58 666.92 350.00 661.00
C 354.79 661.26 357.66 657.92 362.00 661.00
C 357.98 663.45 357.68 670.38 362.00 673.00
C 361.27 675.03 358.81 675.96 358.00 678.00
C 363.37 676.56 363.83 669.44 370.00 669.00
C 368.08 665.56 368.48 664.73 370.00 660.00
C 366.08 660.49 364.48 665.35 361.00 667.00
C 361.77 660.90 373.72 656.45 367.00 650.00
C 364.10 652.38 366.20 657.73 363.00 660.00
C 362.92 654.97 363.86 643.50 371.00 650.00
C 371.87 644.25 381.02 640.23 376.00 634.00
C 381.83 636.25 381.51 630.32 385.00 629.00
C 383.99 634.40 382.24 641.18 385.00 646.00
C 378.63 651.91 369.65 661.51 375.00 671.00
C 379.44 660.44 385.40 673.48 391.00 674.00
C 388.84 669.44 384.72 666.41 380.00 665.00
C 380.71 662.60 382.68 661.09 384.00 659.00
C 382.66 664.57 387.40 667.64 393.00 667.00
C 391.49 661.18 386.43 656.48 390.00 650.00
C 396.09 657.58 391.42 676.69 401.00 684.00
C 398.99 678.97 403.65 682.28 406.00 683.00
C 414.92 674.84 399.31 672.92 402.00 664.00
C 396.12 663.84 396.83 660.99 395.00 657.00
C 407.52 652.04 387.61 640.96 386.00 628.00
C 388.46 632.90 392.75 637.67 395.00 643.00
C 404.21 630.62 398.75 663.17 405.00 652.00
C 404.74 658.67 404.63 665.32 408.00 671.00
C 410.32 668.22 412.69 670.20 415.00 672.00
C 413.09 675.07 414.78 678.05 415.00 681.00
C 418.29 680.76 420.77 678.66 424.00 678.00
C 424.57 680.56 424.35 683.11 427.00 685.00
C 429.06 681.00 425.69 677.05 423.00 674.00
C 420.48 673.54 418.22 676.25 416.00 674.00
C 416.62 671.57 419.93 671.87 421.00 670.00
C 418.30 666.34 414.36 662.13 415.00 657.00
C 417.41 655.99 420.51 658.77 422.00 657.00
C 420.72 656.16 420.94 650.56 424.00 653.00
C 423.79 650.05 424.07 646.42 427.00 645.00
C 429.74 646.62 424.49 648.55 426.00 651.00
C 429.94 648.23 432.39 643.66 433.00 639.00
C 425.18 634.60 422.38 647.42 415.00 647.00
C 415.05 644.47 418.44 643.96 418.00 641.00
C 391.49 648.68 419.24 636.53 416.00 628.00
C 421.01 630.56 423.38 623.73 421.00 620.00
C 423.31 619.00 424.75 616.36 425.00 614.00
C 417.81 613.72 420.06 619.98 418.00 624.00
C 415.39 621.32 418.41 608.82 422.00 609.00
C 422.72 604.36 418.54 601.25 418.00 597.00
C 423.88 606.38 432.86 616.20 433.00 628.00
C 438.00 627.95 436.17 631.69 436.00 635.00
C 440.48 630.48 441.02 638.81 444.00 641.00
C 433.55 645.36 425.86 667.71 444.00 662.00
C 439.92 655.30 448.79 655.45 451.00 660.00
C 450.83 656.91 449.40 654.26 450.00 651.00
C 446.90 650.80 446.96 654.72 444.00 655.00
C 444.01 646.96 451.93 649.89 456.00 653.00
C 456.91 650.04 450.97 648.48 455.00 647.00
C 455.14 642.94 452.55 648.46 451.00 646.00
C 455.97 641.63 458.52 633.42 462.00 629.00
C 463.97 633.45 463.41 638.63 466.00 643.00
C 466.14 637.96 469.53 639.36 473.00 643.00
C 469.71 638.60 475.27 625.66 474.00 624.00
C 468.79 621.94 463.93 619.20 459.00 617.00
C 443.09 609.89 429.11 590.70 412.00 586.00
C 413.41 603.10 391.41 619.04 374.00 615.00
C 365.87 621.61 361.79 632.15 353.00 638.00 Z"/>
</g>
<g fill="None" fill-opacity="0.0" stroke="#298FD9" stroke-opacity="1.00" stroke-width="0.3"><path d="
M 224.00 594.00 
C 217.91 598.52 215.37 606.29 211.00 612.00
C 217.03 607.50 221.54 600.60 224.00 594.00 Z"/>
</g>
<g fill="None" fill-opacity="0.0" stroke="#2781D0" stroke-opacity="1.00" stroke-width="0.3"><path d="
M 459.00 617.00 
C 463.93 619.20 468.79 621.94 474.00 624.00
C 475.68 624.70 476.81 626.76 479.00 626.00
C 477.33 617.94 463.13 613.40 461.00 606.00
C 460.55 607.39 458.68 617.18 459.00 617.00 Z"/>
</g>
<g fill="None" fill-opacity="0.0" stroke="#0E4182" stroke-opacity="1.00" stroke-width="0.3"><path d="
M 487.00 788.00 
C 473.54 796.68 459.30 782.68 445.00 791.00
C 437.58 796.52 441.37 802.11 431.00 804.00
C 418.06 806.36 410.96 807.25 400.00 815.00
C 377.54 830.88 351.79 843.18 327.00 854.00
C 299.22 872.68 271.02 854.94 246.00 848.00
C 206.42 812.84 166.32 820.86 131.23 854.23 C 96.14 887.60 40.28 878.62 0.00 898.00
L 0.00 1023.00
C 113.50 1024.86 227.56 1020.52 341.00 1023.00 C 454.44 1025.48 568.77 1018.25 682.00 1023.00 C 795.23 1027.75 910.26 1012.81 1023.00 1023.00
C 1023.08 925.67 1014.24 823.88 1023.00 727.00
C 1006.68 728.33 991.66 724.00 978.00 717.00
C 979.33 720.16 980.59 722.11 982.00 725.00
C 977.17 725.28 980.32 727.43 976.00 723.00
C 963.73 733.16 942.86 702.44 929.00 699.00
C 914.66 692.53 886.05 707.14 871.25 698.75 C 856.45 690.36 839.14 684.20 823.23 680.77 C 807.32 677.34 796.87 663.81 785.25 653.75 C 773.63 643.70 754.49 637.84 744.25 628.75 C 734.01 619.66 709.91 604.37 712.00 616.00
C 712.43 622.07 705.69 626.95 709.00 633.00
C 706.47 637.64 696.95 658.66 705.00 654.00
C 700.90 662.75 696.41 671.52 694.00 681.00
C 712.29 697.74 726.21 711.49 753.00 711.00
C 737.00 717.08 724.14 727.65 709.70 737.70 C 695.25 747.74 672.21 748.90 656.07 753.07 C 639.94 757.24 623.84 768.16 612.08 778.08 C 600.33 788.00 583.76 807.36 579.00 800.00
C 574.91 801.15 571.94 805.98 567.00 805.00
C 574.93 802.26 576.29 793.35 579.00 787.00
C 547.54 801.07 512.40 801.92 479.00 794.00
C 481.68 792.22 484.57 790.25 487.00 788.00 Z"/>
</g>
<g fill="None" fill-opacity="0.0" stroke="#3198E4" stroke-opacity="1.00" stroke-width="0.3"><path d="
M 207.00 612.00 
C 194.39 613.84 204.04 636.37 197.00 633.00
C 196.54 640.67 191.85 648.20 197.00 655.00
C 200.45 648.92 206.66 644.15 208.00 637.00
C 205.17 638.82 204.20 642.45 202.00 645.00
C 199.26 634.37 202.42 621.69 207.00 612.00 Z"/>
</g>
<g fill="None" fill-opacity="0.0" stroke="#44AAF1" stroke-opacity="1.00" stroke-width="0.3"><path d="
M 673.00 616.00 
C 676.93 616.38 682.36 617.80 687.00 617.00
C 665.44 612.73 651.04 633.09 638.00 641.00
C 642.90 634.47 651.07 628.37 655.00 621.00
C 640.53 627.75 632.41 639.18 618.00 643.00
C 618.77 638.52 620.64 638.51 623.00 633.00
C 607.37 638.58 602.61 659.24 588.00 664.00
C 586.45 672.45 569.33 681.91 559.00 683.00
C 558.96 679.85 563.02 678.70 564.00 676.00
C 559.75 675.42 554.60 675.62 551.00 674.00
C 559.49 668.16 568.06 661.78 575.00 654.00
C 563.85 657.01 555.04 665.71 544.00 665.00
C 544.98 662.99 547.36 662.36 549.00 661.00
C 540.23 657.70 554.26 653.27 556.00 648.00
C 552.25 648.45 550.76 653.30 547.00 654.00
C 547.28 651.25 545.88 649.53 547.00 647.00
C 542.78 646.96 542.13 652.31 538.00 653.00
C 537.73 650.25 541.29 649.32 542.00 647.00
C 531.58 649.24 523.39 656.96 513.00 659.00
C 514.28 653.35 518.76 650.21 523.00 647.00
C 515.09 645.48 505.29 647.03 501.00 638.00
C 495.44 638.38 491.62 642.51 487.00 645.00
C 483.07 647.12 477.74 647.80 474.00 651.00
C 473.55 654.74 473.76 656.20 472.00 660.00
C 469.39 665.64 464.82 669.56 460.00 673.00
C 452.63 678.26 441.13 685.40 434.00 692.00
C 423.91 705.99 433.08 722.91 427.00 739.00
C 417.96 738.58 425.07 726.84 420.00 725.00
C 417.66 733.97 409.33 741.74 408.00 751.00
C 411.74 750.49 422.96 741.90 421.00 747.00
C 435.56 743.92 436.66 722.57 453.00 723.00
C 456.74 730.22 449.39 734.58 446.00 740.00
C 453.35 736.10 458.36 727.70 466.00 724.00
C 465.08 728.91 464.61 731.73 461.00 735.00
C 468.55 734.44 474.30 729.62 480.00 725.00
C 470.99 734.98 458.71 743.50 450.00 755.00
C 462.31 745.87 472.55 732.24 486.00 725.00
C 484.20 729.57 490.03 729.26 494.00 728.00
C 490.89 730.00 486.24 735.09 493.00 733.00
C 488.30 742.00 480.37 747.55 474.00 755.00
C 478.26 753.34 491.07 740.27 487.00 750.00
C 490.49 749.53 492.37 745.25 496.00 745.00
C 492.65 750.07 490.23 751.18 495.00 753.00
C 492.22 753.38 490.91 756.22 489.00 758.00
C 492.81 759.98 494.82 752.91 498.00 751.00
C 496.23 760.32 486.97 765.43 482.00 773.00
C 496.16 766.42 506.26 749.65 523.00 748.00
C 519.17 751.04 519.82 751.74 517.00 757.00
C 519.06 755.70 520.95 756.42 523.00 757.00
C 519.37 753.62 524.36 752.11 528.00 752.00
C 522.96 757.69 523.47 763.21 516.00 769.00
C 576.85 718.91 639.64 668.97 697.00 615.00
C 689.27 616.42 681.07 616.00 673.00 616.00 Z"/>
</g>
<g fill="None" fill-opacity="0.0" stroke="#62C4FB" stroke-opacity="1.00" stroke-width="0.3"><path d="
M 644.00 622.00 
C 634.32 625.62 626.68 629.86 616.00 632.00
C 600.85 635.03 583.37 623.83 569.01 634.01 C 554.64 644.18 537.72 638.88 523.00 647.00
C 518.76 650.21 514.28 653.35 513.00 659.00
C 523.39 656.96 531.58 649.24 542.00 647.00
C 541.29 649.32 537.73 650.25 538.00 653.00
C 542.13 652.31 542.78 646.96 547.00 647.00
C 545.88 649.53 547.28 651.25 547.00 654.00
C 550.76 653.30 552.25 648.45 556.00 648.00
C 554.26 653.27 540.23 657.70 549.00 661.00
C 547.36 662.36 544.98 662.99 544.00 665.00
C 555.04 665.71 563.85 657.01 575.00 654.00
C 568.06 661.78 559.49 668.16 551.00 674.00
C 554.60 675.62 559.75 675.42 564.00 676.00
C 563.02 678.70 558.96 679.85 559.00 683.00
C 569.33 681.91 586.45 672.45 588.00 664.00
C 602.61 659.24 607.37 638.58 623.00 633.00
C 620.64 638.51 618.77 638.52 618.00 643.00
C 632.41 639.18 640.53 627.75 655.00 621.00
C 651.07 628.37 642.90 634.47 638.00 641.00
C 651.04 633.09 665.44 612.73 687.00 617.00
C 682.36 617.80 676.93 616.38 673.00 616.00
C 662.51 616.00 653.44 618.47 644.00 622.00 Z"/>
</g>
<g fill="None" fill-opacity="0.0" stroke="#2F93E0" stroke-opacity="1.00" stroke-width="0.3"><path d="
M 184.00 620.00 
C 177.33 615.60 176.12 626.75 170.00 623.00
C 166.23 630.69 175.57 638.51 170.00 643.00
C 174.60 645.14 172.89 651.60 177.00 654.00
C 178.53 651.37 174.64 649.06 175.00 646.00
C 183.07 655.01 186.87 647.94 179.00 641.00
C 181.17 642.43 182.76 645.00 185.00 642.00
C 183.09 634.76 187.61 626.45 184.00 620.00 Z"/>
</g>
<g fill="None" fill-opacity="0.0" stroke="#2C90DC" stroke-opacity="1.00" stroke-width="0.3"><path d="
M 192.00 641.00 
C 196.31 635.41 193.62 625.74 189.00 621.00
C 185.18 627.50 191.09 634.55 192.00 641.00 Z"/>
</g>
<g fill="None" fill-opacity="0.0" stroke="#2E93DF" stroke-opacity="1.00" stroke-width="0.3"><path d="
M 165.00 646.00 
C 173.76 636.34 158.64 627.21 157.00 640.00
C 156.91 642.82 158.67 645.06 158.00 648.00
C 165.02 648.92 159.97 640.45 162.00 638.00
C 162.82 640.68 163.83 643.75 165.00 646.00 Z"/>
</g>
<g fill="None" fill-opacity="0.0" stroke="#2176C8" stroke-opacity="1.00" stroke-width="0.3"><path d="
M 474.00 651.00 
C 477.74 647.80 483.07 647.12 487.00 645.00
C 486.35 643.16 487.39 639.27 485.00 637.00
C 480.85 637.70 482.31 641.14 482.00 643.00
C 477.19 643.30 474.59 646.17 474.00 651.00 Z"/>
</g>
<g fill="None" fill-opacity="0.0" stroke="#3096E4" stroke-opacity="1.00" stroke-width="0.3"><path d="
M 137.00 643.00 
C 131.88 642.86 131.19 648.65 128.00 651.00
C 128.46 657.74 133.13 662.66 131.00 669.00
C 128.51 667.09 127.38 663.91 129.00 661.00
C 124.23 662.11 127.61 667.87 125.00 671.00
C 133.29 665.97 132.51 676.99 128.00 681.00
C 138.06 677.69 132.65 697.50 129.00 703.00
C 137.97 702.41 144.96 695.93 147.00 688.00
C 147.88 694.23 171.08 676.04 165.32 663.68 C 159.56 651.32 149.04 678.69 138.00 680.00
C 140.00 676.31 141.14 672.29 141.00 668.00
C 132.96 678.38 138.38 665.15 138.00 658.00
C 125.19 663.18 140.12 648.46 137.00 643.00 Z"/>
</g>
<g fill="None" fill-opacity="0.0" stroke="#2882D5" stroke-opacity="1.00" stroke-width="0.3"><path d="
M 460.00 673.00 
C 464.82 669.56 469.39 665.64 472.00 660.00
C 467.95 663.96 464.02 669.10 460.00 673.00 Z"/>
</g>
<g fill="None" fill-opacity="0.0" stroke="#2C91DF" stroke-opacity="1.00" stroke-width="0.3"><path d="
M 105.00 669.00 
C 99.53 669.25 99.78 663.03 96.00 661.00
C 104.12 667.00 94.43 690.55 102.00 684.00
C 101.75 690.16 107.24 705.37 100.00 705.00
C 99.41 707.98 102.85 709.25 101.00 712.00
C 108.18 712.83 109.05 701.08 112.00 704.00
C 117.12 691.02 108.57 680.78 105.00 669.00 Z"/>
</g>
<g fill="None" fill-opacity="0.0" stroke="#2D93E2" stroke-opacity="1.00" stroke-width="0.3"><path d="
M 94.00 664.00 
C 92.40 666.02 90.01 667.58 87.00 667.00
C 86.91 677.03 76.54 682.43 72.00 690.00
C 78.12 692.55 72.13 696.18 75.00 701.00
C 81.49 693.99 81.83 681.09 88.00 673.00
C 89.60 678.11 85.45 684.44 89.00 690.00
C 91.94 684.61 92.40 678.22 98.00 674.00
C 97.93 670.12 94.50 667.68 94.00 664.00 Z"/>
</g>
<g fill="None" fill-opacity="0.0" stroke="#4A95DB" stroke-opacity="1.00" stroke-width="0.3"><path d="
M 1023.00 727.00 
C 1023.00 726.96 1024.00 727.00 1024.00 727.00
L 1024.00 676.00
C 1024.00 676.00 1023.14 676.22 1023.00 676.00
C 1021.55 692.09 1021.56 710.91 1023.00 727.00 Z"/>
</g>
<g fill="None" fill-opacity="0.0" stroke="#08448D" stroke-opacity="1.00" stroke-width="0.3"><path d="
M 235.00 708.00 
C 223.64 718.63 203.74 741.69 202.00 744.00
C 183.62 766.99 154.91 779.70 138.00 805.00
C 160.88 785.19 185.47 761.13 212.00 749.00
C 212.56 752.49 210.29 755.07 209.00 758.00
C 216.81 757.19 217.25 747.11 209.00 747.00
C 212.20 746.40 215.49 745.25 217.00 749.00
C 219.64 745.46 220.79 738.67 225.00 738.00
C 227.43 738.51 226.98 742.61 230.00 742.00
C 224.19 735.30 235.93 729.57 237.00 723.00
C 235.11 725.03 233.05 724.82 232.00 722.00
C 236.55 719.46 238.71 723.49 241.00 718.00
C 240.22 723.49 236.42 727.92 237.00 734.00
C 240.99 731.28 246.22 729.01 247.00 724.00
C 247.60 727.28 248.63 733.19 252.00 728.00
C 254.55 729.36 253.07 731.69 252.00 734.00
C 258.10 734.87 254.94 726.69 257.00 723.00
C 253.42 722.89 252.47 727.69 249.00 727.00
C 249.88 724.60 249.45 722.52 249.00 720.00
C 252.58 720.92 252.29 719.29 256.00 721.00
C 254.24 717.99 267.10 712.42 258.00 716.00
C 264.10 710.13 270.72 702.48 275.00 696.00
C 270.29 702.08 270.62 714.31 279.00 717.00
C 279.75 714.03 278.13 710.06 276.00 714.00
C 278.26 710.15 273.93 706.17 276.00 703.00
C 279.35 704.42 276.54 711.21 282.00 710.00
C 282.03 707.03 278.35 703.47 281.00 701.00
C 283.37 703.92 282.22 708.94 287.00 708.00
C 287.19 704.69 285.28 702.04 287.00 699.00
C 290.06 700.75 291.72 698.10 291.00 695.00
C 285.92 699.75 290.30 691.62 291.00 689.00
C 294.83 692.69 292.57 699.37 292.00 704.00
C 298.14 702.99 297.28 695.39 299.00 691.00
C 292.44 692.82 294.86 684.59 296.00 683.00
C 291.77 686.33 288.65 680.82 285.00 680.00
C 277.12 691.17 264.92 700.68 251.00 698.00
C 250.38 703.66 243.99 703.41 240.00 702.00
C 238.54 704.00 236.60 706.27 235.00 708.00 Z"/>
</g>
<g fill="None" fill-opacity="0.0" stroke="#329AE7" stroke-opacity="1.00" stroke-width="0.3"><path d="
M 72.00 686.00 
C 64.95 686.80 64.72 696.41 61.00 701.00
C 70.26 698.23 62.45 710.08 64.00 715.00
C 83.42 716.36 56.70 693.62 72.00 686.00 Z"/>
</g>
<g fill="None" fill-opacity="0.0" stroke="#2C8EDE" stroke-opacity="1.00" stroke-width="0.3"><path d="
M 171.00 700.00 
C 153.36 714.35 179.74 716.41 171.00 729.00
C 180.09 726.24 190.19 718.30 198.00 713.00
C 203.49 702.37 191.96 691.43 182.00 692.00
C 178.46 694.74 174.50 697.15 171.00 700.00 Z"/>
</g>
<g fill="None" fill-opacity="0.0" stroke="#3194E2" stroke-opacity="1.00" stroke-width="0.3"><path d="
M 403.00 753.00 
C 400.98 764.84 383.40 773.74 382.00 784.00
C 379.06 783.93 377.32 786.71 375.00 788.00
C 388.69 790.56 390.27 768.25 403.00 765.00
C 396.35 776.71 385.20 784.26 379.00 795.00
C 383.98 793.63 391.32 797.38 393.00 790.00
C 395.67 790.67 397.77 792.94 401.00 792.00
C 400.75 794.36 399.31 797.00 397.00 798.00
C 402.93 802.47 395.02 811.52 400.00 815.00
C 410.96 807.25 418.06 806.36 431.00 804.00
C 436.13 800.76 439.56 794.16 445.00 791.00
C 459.30 782.68 473.54 796.68 487.00 788.00
C 495.47 780.17 508.24 777.48 516.00 769.00
C 523.47 763.21 522.96 757.69 528.00 752.00
C 524.36 752.11 519.37 753.62 523.00 757.00
C 520.95 756.42 519.06 755.70 517.00 757.00
C 519.82 751.74 519.17 751.04 523.00 748.00
C 506.26 749.65 496.16 766.42 482.00 773.00
C 486.97 765.43 496.23 760.32 498.00 751.00
C 494.82 752.91 492.81 759.98 489.00 758.00
C 490.91 756.22 492.22 753.38 495.00 753.00
C 490.23 751.18 492.65 750.07 496.00 745.00
C 492.37 745.25 490.49 749.53 487.00 750.00
C 491.07 740.27 478.26 753.34 474.00 755.00
C 480.37 747.55 488.30 742.00 493.00 733.00
C 486.24 735.09 490.89 730.00 494.00 728.00
C 490.03 729.26 484.20 729.57 486.00 725.00
C 472.55 732.24 462.31 745.87 450.00 755.00
C 458.71 743.50 470.99 734.98 480.00 725.00
C 474.30 729.62 468.55 734.44 461.00 735.00
C 464.61 731.73 465.08 728.91 466.00 724.00
C 458.36 727.70 453.35 736.10 446.00 740.00
C 449.39 734.58 456.74 730.22 453.00 723.00
C 436.66 722.57 435.56 743.92 421.00 747.00
C 422.96 741.90 411.74 750.49 408.00 751.00
C 409.33 741.74 417.66 733.97 420.00 725.00
C 425.07 726.84 417.96 738.58 427.00 739.00
C 433.08 722.91 423.91 705.99 434.00 692.00
C 429.11 700.85 414.21 715.64 423.00 724.00
C 415.75 728.69 404.94 741.66 403.00 753.00 Z"/>
</g>
<g fill="None" fill-opacity="0.0" stroke="#3297E5" stroke-opacity="1.00" stroke-width="0.3"><path d="
M 0.00 749.00 
L 0.00 808.00
C 28.85 801.93 55.39 785.38 85.30 776.30 C 115.22 767.23 127.94 731.22 160.00 730.00
C 159.50 728.24 157.28 729.28 156.00 729.00
C 159.38 723.96 155.04 719.45 154.00 715.00
C 156.42 714.13 157.53 711.46 157.00 709.00
C 124.01 729.89 88.53 746.59 56.00 768.00
C 64.54 740.99 101.39 737.59 110.00 710.00
C 106.14 710.14 103.09 712.80 104.00 717.00
C 99.47 714.18 99.70 721.86 96.00 722.00
C 98.36 718.22 98.61 714.94 100.00 711.00
C 95.27 713.29 96.28 717.64 94.00 722.00
C 88.89 721.19 84.25 715.35 82.00 711.00
C 84.03 711.73 84.96 714.19 87.00 715.00
C 88.67 709.92 87.42 708.91 92.00 712.00
C 92.84 706.94 87.90 703.67 84.00 702.00
C 84.66 699.80 85.33 697.42 83.00 696.00
C 82.99 701.48 77.69 707.33 76.00 713.00
C 79.91 707.82 84.24 718.78 79.00 721.00
C 78.40 718.44 77.39 715.40 75.00 714.00
C 77.06 722.35 71.84 732.80 62.00 733.00
C 62.18 735.66 60.63 738.25 59.00 740.00
C 58.77 731.84 62.10 720.09 53.00 714.00
C 49.76 720.90 41.66 747.19 31.00 739.00
C 30.99 743.38 30.12 747.14 25.00 749.00
C 24.37 745.31 26.40 742.33 27.00 739.00
C 21.22 749.92 9.72 745.71 0.00 749.00 Z"/>
</g>
<g fill="None" fill-opacity="0.0" stroke="#4C77AE" stroke-opacity="1.00" stroke-width="0.3"><path d="
M 1023.00 1023.00 
C 1023.00 1023.50 1023.00 1024.00 1023.00 1024.00
L 1024.00 1024.00
L 1024.00 727.00
C 1024.00 727.00 1023.00 726.96 1023.00 727.00
C 1014.24 823.88 1023.08 925.67 1023.00 1023.00 Z"/>
</g>
<g fill="None" fill-opacity="0.0" stroke="#1F72C5" stroke-opacity="1.00" stroke-width="0.3"><path d="
M 327.00 854.00 
C 351.79 843.18 377.54 830.88 400.00 815.00
C 395.02 811.52 402.93 802.47 397.00 798.00
C 399.31 797.00 400.75 794.36 401.00 792.00
C 397.77 792.94 395.67 790.67 393.00 790.00
C 391.32 797.38 383.98 793.63 379.00 795.00
C 385.20 784.26 396.35 776.71 403.00 765.00
C 390.27 768.25 388.69 790.56 375.00 788.00
C 377.32 786.71 379.06 783.93 382.00 784.00
C 383.40 773.74 400.98 764.84 403.00 753.00
C 401.40 754.55 401.45 755.02 400.00 753.00
C 393.39 760.85 383.36 769.62 381.00 781.00
C 378.68 778.93 357.34 791.35 358.00 797.00
C 339.06 801.58 332.11 821.12 319.00 833.00
C 327.52 832.31 333.91 825.24 342.00 823.00
C 339.91 826.33 333.93 826.96 333.00 831.00
C 334.80 830.51 339.12 827.44 339.00 831.00
C 342.20 830.30 338.95 827.61 341.00 826.00
C 342.00 830.88 342.90 829.99 347.00 830.00
C 344.93 832.12 344.34 835.65 340.00 836.00
C 345.57 839.47 337.64 839.06 342.00 843.00
C 337.92 849.26 329.62 844.15 332.00 850.00
C 327.72 846.95 329.47 848.89 329.00 852.00
C 326.99 849.32 323.32 850.73 321.00 852.00
C 322.01 852.69 325.57 854.09 327.00 854.00 Z"/>
</g>
<g fill="None" fill-opacity="0.0" stroke="#246FB9" stroke-opacity="1.00" stroke-width="0.3"><path d="
M 431.00 804.00 
C 441.37 802.11 437.58 796.52 445.00 791.00
C 439.56 794.16 436.13 800.76 431.00 804.00 Z"/>
</g>
<g fill="None" fill-opacity="0.0" stroke="#265591" stroke-opacity="1.00" stroke-width="0.3"><path d="
M 0.00 1024.00 
L 1023.00 1024.00
C 1023.00 1024.00 1023.00 1023.50 1023.00 1023.00
C 910.26 1012.81 795.23 1027.75 682.00 1023.00 C 568.77 1018.25 454.44 1025.48 341.00 1023.00 C 227.56 1020.52 113.50 1024.86 0.00 1023.00
L 0.00 1024.00 Z"/>
</g>
<g fill="#4CACDF" fill-opacity="1.00" stroke="None"><path d="
M 0.00 749.00 
C 9.72 745.71 21.22 749.92 27.00 739.00
C 26.40 742.33 24.37 745.31 25.00 749.00
C 30.12 747.14 30.99 743.38 31.00 739.00
C 41.66 747.19 49.76 720.90 53.00 714.00
C 62.10 720.09 58.77 731.84 59.00 740.00
C 60.63 738.25 62.18 735.66 62.00 733.00
C 71.84 732.80 77.06 722.35 75.00 714.00
C 77.39 715.40 78.40 718.44 79.00 721.00
C 84.24 718.78 79.91 707.82 76.00 713.00
C 77.69 707.33 82.99 701.48 83.00 696.00
C 85.33 697.42 84.66 699.80 84.00 702.00
C 87.90 703.67 92.84 706.94 92.00 712.00
C 87.42 708.91 88.67 709.92 87.00 715.00
C 84.96 714.19 84.03 711.73 82.00 711.00
C 84.25 715.35 88.89 721.19 94.00 722.00
C 96.28 717.64 95.27 713.29 100.00 711.00
C 98.61 714.94 98.36 718.22 96.00 722.00
C 99.70 721.86 99.47 714.18 104.00 717.00
C 103.09 712.80 106.14 710.14 110.00 710.00
C 101.39 737.59 64.54 740.99 56.00 768.00
C 88.53 746.59 124.01 729.89 157.00 709.00
C 157.53 711.46 156.42 714.13 154.00 715.00
C 155.04 719.45 159.38 723.96 156.00 729.00
C 157.28 729.28 159.50 728.24 160.00 730.00
C 163.91 729.85 167.36 730.11 171.00 729.00
C 179.74 716.41 153.36 714.35 171.00 700.00
C 167.78 701.65 151.03 706.59 154.00 701.00
C 150.01 706.33 149.39 699.86 146.00 704.00
C 183.88 650.82 275.80 649.86 311.92 589.92 C 348.04 529.97 421.28 508.19 454.00 449.00
C 429.76 477.35 397.93 496.08 369.00 517.00
C 365.80 517.64 369.47 513.27 366.00 513.00
C 367.07 520.08 362.30 513.87 360.00 515.00
C 394.32 445.88 488.63 431.80 511.00 354.00
C 488.53 367.28 458.85 374.54 454.00 403.00
C 457.36 405.17 444.12 423.38 432.77 425.77 C 421.42 428.16 408.87 442.58 400.00 446.00
C 402.38 442.20 406.68 439.76 409.00 436.00
C 403.63 436.19 399.56 444.65 395.00 444.00
C 391.61 448.03 394.80 445.51 398.00 445.00
C 396.00 448.89 398.54 448.25 401.00 449.00
C 388.63 454.67 380.81 465.87 367.00 469.00
C 364.25 479.31 353.26 487.24 346.00 494.00
C 350.92 484.30 356.64 475.53 362.00 467.00
C 352.25 479.98 329.53 484.58 321.00 501.00
C 337.05 477.66 336.72 446.74 353.00 424.00
C 370.79 406.21 398.13 389.45 409.25 366.25 C 420.36 343.04 451.13 327.69 461.00 304.00
C 463.39 298.27 466.17 294.12 471.00 290.00
C 486.71 270.88 497.83 246.40 515.00 229.00
C 518.78 239.27 528.26 246.40 535.00 255.00
C 544.63 263.91 557.87 268.39 564.00 281.00
C 566.40 282.13 566.28 275.65 567.00 280.00
C 568.37 279.23 567.39 277.54 569.00 277.00
C 581.03 290.67 579.29 309.52 590.31 323.70 C 601.32 337.87 601.85 360.74 605.93 377.07 C 610.00 393.41 617.92 413.55 622.92 428.08 C 627.93 442.60 635.74 469.08 647.00 463.00
C 664.45 489.96 698.50 501.71 714.00 529.00
C 717.79 529.81 720.88 528.32 724.00 527.00
C 739.59 541.50 750.51 560.48 772.00 569.00
C 783.12 559.93 786.58 586.25 797.00 589.00
C 797.53 585.98 798.78 581.23 803.00 582.00
C 802.30 585.52 804.01 588.40 806.00 591.00
C 808.42 589.70 810.04 587.43 811.00 585.00
C 815.00 586.54 819.64 585.87 824.00 586.00
C 825.54 592.62 838.11 604.83 844.00 598.00
C 859.71 609.33 873.20 623.65 892.08 610.08 C 910.95 596.50 919.82 631.70 932.25 638.75 C 944.67 645.80 965.07 671.46 977.00 657.00
C 982.19 661.87 988.68 657.53 994.00 662.00
C 994.63 676.75 1015.94 667.43 1023.00 676.00
C 1023.14 676.22 1024.00 676.00 1024.00 676.00
L 1024.00 675.00
C 1021.67 450.91 1023.67 224.85 1023.00 0.00
L 0.00 0.00
L 0.00 749.00 Z"/>
</g>
<g fill="#77C7EF" fill-opacity="1.00" stroke="None"><path d="
M 1024.00 675.00 
L 1024.00 0.00
L 1023.00 0.00
C 1023.67 224.85 1021.67 450.91 1024.00 675.00 Z"/>
</g>
<g fill="#95DCFB" fill-opacity="1.00" stroke="None"><path d="
M 471.00 290.00 
C 489.61 274.10 501.06 259.89 513.00 240.00
C 515.38 242.23 516.29 246.20 520.00 247.00
C 519.74 244.56 518.24 242.48 518.00 240.00
C 524.38 242.68 529.11 253.30 535.00 255.00
C 528.26 246.40 518.78 239.27 515.00 229.00
C 497.83 246.40 486.71 270.88 471.00 290.00 Z"/>
</g>
<g fill="#6FC9FC" fill-opacity="1.00" stroke="None"><path d="
M 471.00 290.00 
C 466.17 294.12 463.39 298.27 461.00 304.00
C 475.43 290.39 502.42 289.18 520.00 288.00
C 509.31 293.11 503.84 302.80 494.00 309.00
C 507.42 314.37 482.79 319.72 481.00 328.00
C 483.46 331.88 456.22 345.06 448.75 359.75 C 441.28 374.44 416.12 379.82 403.31 390.30 C 390.49 400.79 369.99 411.33 363.00 422.00
C 359.78 422.17 355.44 425.02 353.00 424.00
C 336.72 446.74 337.05 477.66 321.00 501.00
C 329.53 484.58 352.25 479.98 362.00 467.00
C 363.22 465.10 364.67 463.55 364.00 461.00
C 378.44 457.11 388.84 441.21 401.00 431.00
C 402.91 435.94 400.24 440.65 395.00 444.00
C 399.56 444.65 403.63 436.19 409.00 436.00
C 406.68 439.76 402.38 442.20 400.00 446.00
C 408.87 442.58 421.42 428.16 432.77 425.77 C 444.12 423.38 457.36 405.17 454.00 403.00
C 458.85 374.54 488.53 367.28 511.00 354.00
C 488.63 431.80 394.32 445.88 360.00 515.00
C 362.30 513.87 367.07 520.08 366.00 513.00
C 369.47 513.27 365.80 517.64 369.00 517.00
C 397.93 496.08 429.76 477.35 454.00 449.00
C 421.28 508.19 348.04 529.97 311.92 589.92 C 275.80 649.86 183.88 650.82 146.00 704.00
C 149.39 699.86 150.01 706.33 154.00 701.00
C 151.03 706.59 167.78 701.65 171.00 700.00
C 174.50 697.15 178.46 694.74 182.00 692.00
C 205.43 673.87 235.00 667.82 259.00 651.00
C 255.53 650.06 253.36 653.46 250.00 653.00
C 298.45 628.66 353.20 606.04 392.25 565.25 C 431.30 524.46 458.11 482.52 501.00 444.00
C 501.32 443.80 501.91 443.35 502.00 443.00
C 504.56 432.56 516.41 423.84 521.77 413.77 C 527.13 403.70 530.54 390.24 536.00 381.00
C 536.07 379.40 533.69 381.66 533.00 381.00
C 534.15 377.82 537.14 375.47 539.00 373.00
C 544.81 349.22 578.72 334.56 572.00 303.00
C 561.22 301.13 569.21 287.55 567.00 280.00
C 566.28 275.65 566.40 282.13 564.00 281.00
C 557.87 268.39 544.63 263.91 535.00 255.00
C 529.11 253.30 524.38 242.68 518.00 240.00
C 518.24 242.48 519.74 244.56 520.00 247.00
C 516.29 246.20 515.38 242.23 513.00 240.00
C 501.06 259.89 489.61 274.10 471.00 290.00 Z"/>
</g>
<g fill="#1C71C4" fill-opacity="1.00" stroke="None"><path d="
M 567.00 280.00 
C 569.21 287.55 561.22 301.13 572.00 303.00
C 578.72 334.56 544.81 349.22 539.00 373.00
C 538.20 376.27 537.45 378.54 536.00 381.00
C 530.54 390.24 527.13 403.70 521.77 413.77 C 516.41 423.84 504.56 432.56 502.00 443.00
C 502.43 442.36 503.18 441.36 504.00 441.00
C 506.03 447.71 502.54 457.36 509.00 461.00
C 506.98 457.91 509.54 455.55 513.00 456.00
C 515.40 464.73 521.33 472.37 524.00 481.00
C 521.96 480.19 521.03 477.73 519.00 477.00
C 519.16 482.81 524.46 481.54 519.00 486.00
C 521.01 487.90 522.84 484.63 524.00 486.00
C 525.25 491.46 528.18 496.40 529.00 502.00
C 532.96 497.36 524.41 488.32 527.00 483.00
C 532.84 492.99 534.18 505.00 540.00 515.00
C 538.03 517.88 537.51 511.50 536.00 514.00
C 537.10 516.25 537.31 519.96 541.00 519.00
C 541.65 514.66 539.07 502.65 546.00 498.00
C 551.97 508.64 566.44 521.57 574.00 534.00
C 565.71 520.76 557.27 505.71 548.00 494.00
C 549.75 492.92 552.22 491.89 552.00 489.00
C 561.49 497.29 572.43 505.03 582.00 514.00
C 576.80 500.26 566.17 485.82 568.00 471.00
C 569.96 472.02 566.48 475.45 570.00 476.00
C 570.35 472.85 570.46 468.70 566.00 470.00
C 567.36 465.22 560.52 462.44 565.00 457.00
C 553.43 446.61 554.85 427.06 546.00 414.00
C 548.10 414.07 549.70 417.01 550.00 419.00
C 552.44 413.88 556.33 423.14 558.00 419.00
C 572.51 445.12 586.60 475.25 605.00 495.00
C 613.13 510.19 616.00 527.75 622.00 544.00
C 619.70 525.63 614.55 504.95 610.00 486.00
C 616.24 487.62 619.72 494.53 625.00 498.00
C 620.06 473.87 598.78 457.86 588.00 437.00
C 593.84 441.96 596.92 450.69 602.00 455.00
C 601.89 450.76 607.23 442.28 614.00 444.00
C 611.63 441.30 610.69 436.13 606.00 437.00
C 608.91 436.18 607.48 433.05 610.00 433.00
C 615.00 443.57 625.25 453.78 631.00 461.00
C 628.88 467.43 632.83 471.09 634.00 477.00
C 630.38 477.23 631.67 470.77 628.00 471.00
C 625.86 478.00 625.30 487.15 627.00 495.00
C 629.87 493.29 630.25 496.24 633.00 497.00
C 636.42 494.66 634.72 495.48 635.00 492.00
C 638.75 496.77 636.55 501.98 638.00 509.00
C 643.43 506.95 635.12 496.33 643.00 497.00
C 640.56 496.19 636.98 493.78 642.00 495.00
C 638.81 492.75 641.02 486.71 637.00 486.00
C 639.08 481.97 641.10 480.12 646.00 480.00
C 653.93 492.80 668.45 505.06 665.00 522.00
C 668.20 522.23 672.40 529.24 673.00 523.00
C 674.79 526.91 676.70 528.28 681.00 527.00
C 684.78 540.79 694.03 554.88 710.00 558.00
C 706.71 554.28 703.91 550.14 704.00 545.00
C 706.70 546.89 707.28 548.92 709.00 548.00
C 705.27 546.16 710.19 534.53 716.00 541.00
C 715.38 536.59 714.78 533.03 714.00 529.00
C 698.50 501.71 664.45 489.96 647.00 463.00
C 635.74 469.08 627.93 442.60 622.92 428.08 C 617.92 413.55 610.00 393.41 605.93 377.07 C 601.85 360.74 601.32 337.87 590.31 323.70 C 579.29 309.52 581.03 290.67 569.00 277.00
C 567.39 277.54 568.37 279.23 567.00 280.00 Z"/>
</g>
<g fill="#93DAFD" fill-opacity="1.00" stroke="None"><path d="
M 461.00 304.00 
C 451.13 327.69 420.36 343.04 409.25 366.25 C 398.13 389.45 370.79 406.21 353.00 424.00
C 355.44 425.02 359.78 422.17 363.00 422.00
C 369.99 411.33 390.49 400.79 403.31 390.30 C 416.12 379.82 441.28 374.44 448.75 359.75 C 456.22 345.06 483.46 331.88 481.00 328.00
C 482.79 319.72 507.42 314.37 494.00 309.00
C 503.84 302.80 509.31 293.11 520.00 288.00
C 502.42 289.18 475.43 290.39 461.00 304.00 Z"/>
</g>
<g fill="#2B87DA" fill-opacity="1.00" stroke="None"><path d="
M 589.00 375.00 
C 583.90 372.11 581.89 366.09 577.00 363.00
C 576.88 369.52 592.57 384.32 586.00 383.00
C 590.84 391.87 595.88 403.12 603.00 409.00
C 600.61 394.48 591.08 381.38 589.00 367.00
C 589.10 370.10 589.75 372.09 589.00 375.00 Z"/>
</g>
<g fill="#4699D2" fill-opacity="1.00" stroke="None"><path d="
M 536.00 381.00 
C 537.45 378.54 538.20 376.27 539.00 373.00
C 537.14 375.47 534.15 377.82 533.00 381.00
C 533.69 381.66 536.07 379.40 536.00 381.00 Z"/>
</g>
<g fill="#135CAC" fill-opacity="1.00" stroke="None"><path d="
M 502.00 443.00 
C 501.91 443.35 501.32 443.80 501.00 444.00
C 492.91 454.38 491.24 470.08 489.00 483.00
C 484.27 493.14 460.26 512.37 465.00 521.00
C 462.50 522.47 460.34 524.34 458.00 526.00
C 462.42 547.29 474.88 564.78 463.00 584.00
C 470.14 569.60 487.26 569.53 501.00 568.00
C 497.88 575.01 491.78 581.98 485.00 586.00
C 494.49 587.74 503.86 594.11 511.00 601.00
C 494.95 591.99 479.22 587.51 465.00 595.00
C 463.56 598.66 460.50 601.75 461.00 606.00
C 463.13 613.40 477.33 617.94 479.00 626.00
C 476.81 626.76 475.68 624.70 474.00 624.00
C 475.27 625.66 469.71 638.60 473.00 643.00
C 469.53 639.36 466.14 637.96 466.00 643.00
C 463.41 638.63 463.97 633.45 462.00 629.00
C 458.52 633.42 455.97 641.63 451.00 646.00
C 452.55 648.46 455.14 642.94 455.00 647.00
C 450.97 648.48 456.91 650.04 456.00 653.00
C 451.93 649.89 444.01 646.96 444.00 655.00
C 446.96 654.72 446.90 650.80 450.00 651.00
C 449.40 654.26 450.83 656.91 451.00 660.00
C 448.79 655.45 439.92 655.30 444.00 662.00
C 425.86 667.71 433.55 645.36 444.00 641.00
C 441.02 638.81 440.48 630.48 436.00 635.00
C 436.17 631.69 438.00 627.95 433.00 628.00
C 432.86 616.20 423.88 606.38 418.00 597.00
C 418.54 601.25 422.72 604.36 422.00 609.00
C 418.41 608.82 415.39 621.32 418.00 624.00
C 420.06 619.98 417.81 613.72 425.00 614.00
C 424.75 616.36 423.31 619.00 421.00 620.00
C 423.38 623.73 421.01 630.56 416.00 628.00
C 419.24 636.53 391.49 648.68 418.00 641.00
C 418.44 643.96 415.05 644.47 415.00 647.00
C 422.38 647.42 425.18 634.60 433.00 639.00
C 432.39 643.66 429.94 648.23 426.00 651.00
C 424.49 648.55 429.74 646.62 427.00 645.00
C 424.07 646.42 423.79 650.05 424.00 653.00
C 420.94 650.56 420.72 656.16 422.00 657.00
C 420.51 658.77 417.41 655.99 415.00 657.00
C 414.36 662.13 418.30 666.34 421.00 670.00
C 419.93 671.87 416.62 671.57 416.00 674.00
C 418.22 676.25 420.48 673.54 423.00 674.00
C 425.69 677.05 429.06 681.00 427.00 685.00
C 424.35 683.11 424.57 680.56 424.00 678.00
C 420.77 678.66 418.29 680.76 415.00 681.00
C 414.78 678.05 413.09 675.07 415.00 672.00
C 412.69 670.20 410.32 668.22 408.00 671.00
C 404.63 665.32 404.74 658.67 405.00 652.00
C 398.75 663.17 404.21 630.62 395.00 643.00
C 392.75 637.67 388.46 632.90 386.00 628.00
C 387.61 640.96 407.52 652.04 395.00 657.00
C 396.83 660.99 396.12 663.84 402.00 664.00
C 399.31 672.92 414.92 674.84 406.00 683.00
C 403.65 682.28 398.99 678.97 401.00 684.00
C 391.42 676.69 396.09 657.58 390.00 650.00
C 386.43 656.48 391.49 661.18 393.00 667.00
C 387.40 667.64 382.66 664.57 384.00 659.00
C 382.68 661.09 380.71 662.60 380.00 665.00
C 384.72 666.41 388.84 669.44 391.00 674.00
C 385.40 673.48 379.44 660.44 375.00 671.00
C 369.65 661.51 378.63 651.91 385.00 646.00
C 382.24 641.18 383.99 634.40 385.00 629.00
C 381.51 630.32 381.83 636.25 376.00 634.00
C 381.02 640.23 371.87 644.25 371.00 650.00
C 363.86 643.50 362.92 654.97 363.00 660.00
C 366.20 657.73 364.10 652.38 367.00 650.00
C 373.72 656.45 361.77 660.90 361.00 667.00
C 364.48 665.35 366.08 660.49 370.00 660.00
C 368.48 664.73 368.08 665.56 370.00 669.00
C 363.83 669.44 363.37 676.56 358.00 678.00
C 358.81 675.96 361.27 675.03 362.00 673.00
C 357.68 670.38 357.98 663.45 362.00 661.00
C 357.66 657.92 354.79 661.26 350.00 661.00
C 352.58 666.92 359.17 672.67 356.00 679.00
C 352.09 675.65 354.22 668.97 348.00 669.00
C 349.00 672.24 351.63 674.31 350.00 678.00
C 346.34 674.90 344.02 666.74 340.00 673.00
C 339.37 670.28 342.07 668.59 342.00 666.00
C 336.80 666.89 334.12 673.59 337.00 678.00
C 332.40 675.57 332.04 675.20 330.00 681.00
C 327.78 675.87 335.14 668.32 332.00 663.00
C 329.72 665.58 328.56 669.05 325.00 670.00
C 325.77 673.62 326.87 678.71 323.00 681.00
C 322.35 678.56 323.10 674.81 321.00 672.00
C 327.18 667.29 335.09 651.76 342.00 658.00
C 337.29 644.67 353.96 646.83 357.00 638.00
C 354.66 638.06 350.70 643.11 353.00 638.00
C 341.30 645.78 329.94 655.00 321.00 666.00
C 310.61 661.55 304.77 678.12 296.00 683.00
C 294.86 684.59 292.44 692.82 299.00 691.00
C 297.28 695.39 298.14 702.99 292.00 704.00
C 292.57 699.37 294.83 692.69 291.00 689.00
C 290.30 691.62 285.92 699.75 291.00 695.00
C 291.72 698.10 290.06 700.75 287.00 699.00
C 285.28 702.04 287.19 704.69 287.00 708.00
C 282.22 708.94 283.37 703.92 281.00 701.00
C 278.35 703.47 282.03 707.03 282.00 710.00
C 276.54 711.21 279.35 704.42 276.00 703.00
C 273.93 706.17 278.26 710.15 276.00 714.00
C 278.13 710.06 279.75 714.03 279.00 717.00
C 270.62 714.31 270.29 702.08 275.00 696.00
C 270.72 702.48 264.10 710.13 258.00 716.00
C 267.10 712.42 254.24 717.99 256.00 721.00
C 252.29 719.29 252.58 720.92 249.00 720.00
C 249.45 722.52 249.88 724.60 249.00 727.00
C 252.47 727.69 253.42 722.89 257.00 723.00
C 254.94 726.69 258.10 734.87 252.00 734.00
C 253.07 731.69 254.55 729.36 252.00 728.00
C 248.63 733.19 247.60 727.28 247.00 724.00
C 246.22 729.01 240.99 731.28 237.00 734.00
C 236.42 727.92 240.22 723.49 241.00 718.00
C 238.71 723.49 236.55 719.46 232.00 722.00
C 233.05 724.82 235.11 725.03 237.00 723.00
C 235.93 729.57 224.19 735.30 230.00 742.00
C 226.98 742.61 227.43 738.51 225.00 738.00
C 220.79 738.67 219.64 745.46 217.00 749.00
C 215.49 745.25 212.20 746.40 209.00 747.00
C 217.25 747.11 216.81 757.19 209.00 758.00
C 210.29 755.07 212.56 752.49 212.00 749.00
C 185.47 761.13 160.88 785.19 138.00 805.00
C 154.91 779.70 183.62 766.99 202.00 744.00
C 203.74 741.69 223.64 718.63 235.00 708.00
C 234.54 705.49 225.22 705.06 223.00 705.00
C 213.54 707.31 206.29 707.37 198.00 713.00
C 190.19 718.30 180.09 726.24 171.00 729.00
C 167.36 730.11 163.91 729.85 160.00 730.00
C 127.94 731.22 115.22 767.23 85.30 776.30 C 55.39 785.38 28.85 801.93 0.00 808.00
L 0.00 898.00
C 40.28 878.62 96.14 887.60 131.23 854.23 C 166.32 820.86 206.42 812.84 246.00 848.00
C 271.02 854.94 299.22 872.68 327.00 854.00
C 325.57 854.09 322.01 852.69 321.00 852.00
C 323.32 850.73 326.99 849.32 329.00 852.00
C 329.47 848.89 327.72 846.95 332.00 850.00
C 329.62 844.15 337.92 849.26 342.00 843.00
C 337.64 839.06 345.57 839.47 340.00 836.00
C 344.34 835.65 344.93 832.12 347.00 830.00
C 342.90 829.99 342.00 830.88 341.00 826.00
C 338.95 827.61 342.20 830.30 339.00 831.00
C 339.12 827.44 334.80 830.51 333.00 831.00
C 333.93 826.96 339.91 826.33 342.00 823.00
C 333.91 825.24 327.52 832.31 319.00 833.00
C 332.11 821.12 339.06 801.58 358.00 797.00
C 357.34 791.35 378.68 778.93 381.00 781.00
C 383.36 769.62 393.39 760.85 400.00 753.00
C 401.45 755.02 401.40 754.55 403.00 753.00
C 404.94 741.66 415.75 728.69 423.00 724.00
C 414.21 715.64 429.11 700.85 434.00 692.00
C 441.13 685.40 452.63 678.26 460.00 673.00
C 464.02 669.10 467.95 663.96 472.00 660.00
C 473.76 656.20 473.55 654.74 474.00 651.00
C 474.59 646.17 477.19 643.30 482.00 643.00
C 482.31 641.14 480.85 637.70 485.00 637.00
C 487.39 639.27 486.35 643.16 487.00 645.00
C 491.62 642.51 495.44 638.38 501.00 638.00
C 505.29 647.03 515.09 645.48 523.00 647.00
C 537.72 638.88 554.64 644.18 569.01 634.01 C 583.37 623.83 600.85 635.03 616.00 632.00
C 616.62 631.63 617.66 630.77 618.00 630.00
C 605.01 623.52 590.12 618.36 579.00 607.00
C 565.99 597.82 547.48 589.04 536.00 577.00
C 532.79 589.31 547.52 597.67 559.00 608.00
C 533.40 596.54 523.86 568.32 506.00 549.00
C 499.77 539.35 482.51 534.21 478.00 522.00
C 498.53 541.10 526.57 543.34 548.00 560.00
C 565.33 568.20 579.29 585.61 594.00 597.00
C 607.55 602.85 629.20 621.39 644.00 622.00
C 653.44 618.47 662.51 616.00 673.00 616.00
C 681.07 616.00 689.27 616.42 697.00 615.00
C 639.64 668.97 576.85 718.91 516.00 769.00
C 508.24 777.48 495.47 780.17 487.00 788.00
C 484.57 790.25 481.68 792.22 479.00 794.00
C 512.40 801.92 547.54 801.07 579.00 787.00
C 576.29 793.35 574.93 802.26 567.00 805.00
C 571.94 805.98 574.91 801.15 579.00 800.00
C 583.76 807.36 600.33 788.00 612.08 778.08 C 623.84 768.16 639.94 757.24 656.07 753.07 C 672.21 748.90 695.25 747.74 709.70 737.70 C 724.14 727.65 737.00 717.08 753.00 711.00
C 726.21 711.49 712.29 697.74 694.00 681.00
C 696.41 671.52 700.90 662.75 705.00 654.00
C 696.95 658.66 706.47 637.64 709.00 633.00
C 705.69 626.95 712.43 622.07 712.00 616.00
C 709.91 604.37 734.01 619.66 744.25 628.75 C 754.49 637.84 773.63 643.70 785.25 653.75 C 796.87 663.81 807.32 677.34 823.23 680.77 C 839.14 684.20 856.45 690.36 871.25 698.75 C 886.05 707.14 914.66 692.53 929.00 699.00
C 942.86 702.44 963.73 733.16 976.00 723.00
C 980.32 727.43 977.17 725.28 982.00 725.00
C 980.59 722.11 979.33 720.16 978.00 717.00
C 991.66 724.00 1006.68 728.33 1023.00 727.00
C 1021.56 710.91 1021.55 692.09 1023.00 676.00
C 1015.94 667.43 994.63 676.75 994.00 662.00
C 988.68 657.53 982.19 661.87 977.00 657.00
C 965.07 671.46 944.67 645.80 932.25 638.75 C 919.82 631.70 910.95 596.50 892.08 610.08 C 873.20 623.65 859.71 609.33 844.00 598.00
C 838.11 604.83 825.54 592.62 824.00 586.00
C 819.64 585.87 815.00 586.54 811.00 585.00
C 810.04 587.43 808.42 589.70 806.00 591.00
C 804.01 588.40 802.30 585.52 803.00 582.00
C 798.78 581.23 797.53 585.98 797.00 589.00
C 786.58 586.25 783.12 559.93 772.00 569.00
C 750.51 560.48 739.59 541.50 724.00 527.00
C 720.88 528.32 717.79 529.81 714.00 529.00
C 714.78 533.03 715.38 536.59 716.00 541.00
C 710.19 534.53 705.27 546.16 709.00 548.00
C 707.28 548.92 706.70 546.89 704.00 545.00
C 703.91 550.14 706.71 554.28 710.00 558.00
C 694.03 554.88 684.78 540.79 681.00 527.00
C 676.70 528.28 674.79 526.91 673.00 523.00
C 672.40 529.24 668.20 522.23 665.00 522.00
C 668.45 505.06 653.93 492.80 646.00 480.00
C 641.10 480.12 639.08 481.97 637.00 486.00
C 641.02 486.71 638.81 492.75 642.00 495.00
C 636.98 493.78 640.56 496.19 643.00 497.00
C 635.12 496.33 643.43 506.95 638.00 509.00
C 636.55 501.98 638.75 496.77 635.00 492.00
C 634.72 495.48 636.42 494.66 633.00 497.00
C 630.25 496.24 629.87 493.29 627.00 495.00
C 625.30 487.15 625.86 478.00 628.00 471.00
C 631.67 470.77 630.38 477.23 634.00 477.00
C 632.83 471.09 628.88 467.43 631.00 461.00
C 625.25 453.78 615.00 443.57 610.00 433.00
C 607.48 433.05 608.91 436.18 606.00 437.00
C 610.69 436.13 611.63 441.30 614.00 444.00
C 607.23 442.28 601.89 450.76 602.00 455.00
C 596.92 450.69 593.84 441.96 588.00 437.00
C 598.78 457.86 620.06 473.87 625.00 498.00
C 619.72 494.53 616.24 487.62 610.00 486.00
C 614.55 504.95 619.70 525.63 622.00 544.00
C 616.00 527.75 613.13 510.19 605.00 495.00
C 586.60 475.25 572.51 445.12 558.00 419.00
C 556.33 423.14 552.44 413.88 550.00 419.00
C 549.70 417.01 548.10 414.07 546.00 414.00
C 554.85 427.06 553.43 446.61 565.00 457.00
C 560.52 462.44 567.36 465.22 566.00 470.00
C 570.46 468.70 570.35 472.85 570.00 476.00
C 566.48 475.45 569.96 472.02 568.00 471.00
C 566.17 485.82 576.80 500.26 582.00 514.00
C 572.43 505.03 561.49 497.29 552.00 489.00
C 552.22 491.89 549.75 492.92 548.00 494.00
C 557.27 505.71 565.71 520.76 574.00 534.00
C 566.44 521.57 551.97 508.64 546.00 498.00
C 539.07 502.65 541.65 514.66 541.00 519.00
C 537.31 519.96 537.10 516.25 536.00 514.00
C 537.51 511.50 538.03 517.88 540.00 515.00
C 534.18 505.00 532.84 492.99 527.00 483.00
C 524.41 488.32 532.96 497.36 529.00 502.00
C 528.18 496.40 525.25 491.46 524.00 486.00
C 522.84 484.63 521.01 487.90 519.00 486.00
C 524.46 481.54 519.16 482.81 519.00 477.00
C 521.03 477.73 521.96 480.19 524.00 481.00
C 521.33 472.37 515.40 464.73 513.00 456.00
C 509.54 455.55 506.98 457.91 509.00 461.00
C 502.54 457.36 506.03 447.71 504.00 441.00
C 503.18 441.36 502.43 442.36 502.00 443.00 Z"/>
</g>
<g fill="#2F95E1" fill-opacity="1.00" stroke="None"><path d="
M 362.00 467.00 
C 356.64 475.53 350.92 484.30 346.00 494.00
C 353.26 487.24 364.25 479.31 367.00 469.00
C 380.81 465.87 388.63 454.67 401.00 449.00
C 398.54 448.25 396.00 448.89 398.00 445.00
C 394.80 445.51 391.61 448.03 395.00 444.00
C 400.24 440.65 402.91 435.94 401.00 431.00
C 388.84 441.21 378.44 457.11 364.00 461.00
C 364.67 463.55 363.22 465.10 362.00 467.00 Z"/>
</g>
<g fill="#3EA2EB" fill-opacity="1.00" stroke="None"><path d="
M 182.00 692.00 
C 191.96 691.43 203.49 702.37 198.00 713.00
C 206.29 707.37 213.54 707.31 223.00 705.00
C 251.40 698.07 273.63 678.76 292.00 656.00
C 287.27 653.16 281.39 648.24 279.00 643.00
C 326.28 632.80 365.29 594.04 412.00 586.00
C 429.11 590.70 443.09 609.89 459.00 617.00
C 458.68 617.18 460.55 607.39 461.00 606.00
C 460.50 601.75 463.56 598.66 465.00 595.00
C 479.22 587.51 494.95 591.99 511.00 601.00
C 503.86 594.11 494.49 587.74 485.00 586.00
C 491.78 581.98 497.88 575.01 501.00 568.00
C 487.26 569.53 470.14 569.60 463.00 584.00
C 474.88 564.78 462.42 547.29 458.00 526.00
C 460.34 524.34 462.50 522.47 465.00 521.00
C 460.26 512.37 484.27 493.14 489.00 483.00
C 491.24 470.08 492.91 454.38 501.00 444.00
C 458.11 482.52 431.30 524.46 392.25 565.25 C 353.20 606.04 298.45 628.66 250.00 653.00
C 253.36 653.46 255.53 650.06 259.00 651.00
C 235.00 667.82 205.43 673.87 182.00 692.00 Z"/>
</g>
<g fill="#2B86D7" fill-opacity="1.00" stroke="None"><path d="
M 506.00 549.00 
C 505.80 548.49 505.34 545.29 504.00 544.00
C 514.60 539.42 528.91 566.92 534.00 553.00
C 538.83 554.56 543.35 561.99 548.00 560.00
C 526.57 543.34 498.53 541.10 478.00 522.00
C 482.51 534.21 499.77 539.35 506.00 549.00 Z"/>
</g>
<g fill="#217FD1" fill-opacity="1.00" stroke="None"><path d="
M 265.00 572.00 
C 272.91 559.67 277.34 557.38 289.25 548.25 C 301.16 539.12 270.36 529.36 273.00 546.00
C 270.54 547.43 268.00 548.50 265.00 548.00
C 262.86 551.52 261.96 555.41 260.00 559.00
C 251.01 563.44 239.24 582.55 229.00 582.00
C 227.11 585.61 225.37 589.20 224.00 593.00
C 226.96 591.92 228.73 592.11 226.00 595.00
C 239.48 593.51 250.09 571.50 265.00 572.00 Z"/>
</g>
<g fill="#1A71C4" fill-opacity="1.00" stroke="None"><path d="
M 506.00 549.00 
C 523.86 568.32 533.40 596.54 559.00 608.00
C 547.52 597.67 532.79 589.31 536.00 577.00
C 547.48 589.04 565.99 597.82 579.00 607.00
C 577.82 605.62 576.85 603.61 575.00 603.00
C 574.76 599.41 578.45 602.43 580.00 603.00
C 567.56 589.44 542.36 585.01 536.00 565.00
C 549.25 578.18 564.58 589.02 581.00 596.00
C 578.15 590.56 570.62 588.99 569.00 583.00
C 577.23 587.65 584.75 593.96 594.00 597.00
C 579.29 585.61 565.33 568.20 548.00 560.00
C 543.35 561.99 538.83 554.56 534.00 553.00
C 528.91 566.92 514.60 539.42 504.00 544.00
C 505.34 545.29 505.80 548.49 506.00 549.00 Z"/>
</g>
<g fill="#2482D4" fill-opacity="1.00" stroke="None"><path d="
M 579.00 607.00 
C 590.12 618.36 605.01 623.52 618.00 630.00
C 617.66 630.77 616.62 631.63 616.00 632.00
C 626.68 629.86 634.32 625.62 644.00 622.00
C 629.20 621.39 607.55 602.85 594.00 597.00
C 584.75 593.96 577.23 587.65 569.00 583.00
C 570.62 588.99 578.15 590.56 581.00 596.00
C 564.58 589.02 549.25 578.18 536.00 565.00
C 542.36 585.01 567.56 589.44 580.00 603.00
C 578.45 602.43 574.76 599.41 575.00 603.00
C 576.85 603.61 577.82 605.62 579.00 607.00 Z"/>
</g>
<g fill="#2579CA" fill-opacity="1.00" stroke="None"><path d="
M 539.00 604.00 
C 530.36 593.44 518.37 583.73 508.00 574.00
C 515.59 586.82 527.73 595.70 539.00 604.00 Z"/>
</g>
<g fill="#3291DF" fill-opacity="1.00" stroke="None"><path d="
M 223.00 705.00 
C 225.22 705.06 234.54 705.49 235.00 708.00
C 236.60 706.27 238.54 704.00 240.00 702.00
C 243.99 703.41 250.38 703.66 251.00 698.00
C 264.92 700.68 277.12 691.17 285.00 680.00
C 288.65 680.82 291.77 686.33 296.00 683.00
C 304.77 678.12 310.61 661.55 321.00 666.00
C 329.94 655.00 341.30 645.78 353.00 638.00
C 361.79 632.15 365.87 621.61 374.00 615.00
C 391.41 619.04 413.41 603.10 412.00 586.00
C 365.29 594.04 326.28 632.80 279.00 643.00
C 281.39 648.24 287.27 653.16 292.00 656.00
C 273.63 678.76 251.40 698.07 223.00 705.00 Z"/>
</g>
<g fill="#0A458D" fill-opacity="1.00" stroke="None"><path d="
M 353.00 638.00 
C 350.70 643.11 354.66 638.06 357.00 638.00
C 353.96 646.83 337.29 644.67 342.00 658.00
C 335.09 651.76 327.18 667.29 321.00 672.00
C 323.10 674.81 322.35 678.56 323.00 681.00
C 326.87 678.71 325.77 673.62 325.00 670.00
C 328.56 669.05 329.72 665.58 332.00 663.00
C 335.14 668.32 327.78 675.87 330.00 681.00
C 332.04 675.20 332.40 675.57 337.00 678.00
C 334.12 673.59 336.80 666.89 342.00 666.00
C 342.07 668.59 339.37 670.28 340.00 673.00
C 344.02 666.74 346.34 674.90 350.00 678.00
C 351.63 674.31 349.00 672.24 348.00 669.00
C 354.22 668.97 352.09 675.65 356.00 679.00
C 359.17 672.67 352.58 666.92 350.00 661.00
C 354.79 661.26 357.66 657.92 362.00 661.00
C 357.98 663.45 357.68 670.38 362.00 673.00
C 361.27 675.03 358.81 675.96 358.00 678.00
C 363.37 676.56 363.83 669.44 370.00 669.00
C 368.08 665.56 368.48 664.73 370.00 660.00
C 366.08 660.49 364.48 665.35 361.00 667.00
C 361.77 660.90 373.72 656.45 367.00 650.00
C 364.10 652.38 366.20 657.73 363.00 660.00
C 362.92 654.97 363.86 643.50 371.00 650.00
C 371.87 644.25 381.02 640.23 376.00 634.00
C 381.83 636.25 381.51 630.32 385.00 629.00
C 383.99 634.40 382.24 641.18 385.00 646.00
C 378.63 651.91 369.65 661.51 375.00 671.00
C 379.44 660.44 385.40 673.48 391.00 674.00
C 388.84 669.44 384.72 666.41 380.00 665.00
C 380.71 662.60 382.68 661.09 384.00 659.00
C 382.66 664.57 387.40 667.64 393.00 667.00
C 391.49 661.18 386.43 656.48 390.00 650.00
C 396.09 657.58 391.42 676.69 401.00 684.00
C 398.99 678.97 403.65 682.28 406.00 683.00
C 414.92 674.84 399.31 672.92 402.00 664.00
C 396.12 663.84 396.83 660.99 395.00 657.00
C 407.52 652.04 387.61 640.96 386.00 628.00
C 388.46 632.90 392.75 637.67 395.00 643.00
C 404.21 630.62 398.75 663.17 405.00 652.00
C 404.74 658.67 404.63 665.32 408.00 671.00
C 410.32 668.22 412.69 670.20 415.00 672.00
C 413.09 675.07 414.78 678.05 415.00 681.00
C 418.29 680.76 420.77 678.66 424.00 678.00
C 424.57 680.56 424.35 683.11 427.00 685.00
C 429.06 681.00 425.69 677.05 423.00 674.00
C 420.48 673.54 418.22 676.25 416.00 674.00
C 416.62 671.57 419.93 671.87 421.00 670.00
C 418.30 666.34 414.36 662.13 415.00 657.00
C 417.41 655.99 420.51 658.77 422.00 657.00
C 420.72 656.16 420.94 650.56 424.00 653.00
C 423.79 650.05 424.07 646.42 427.00 645.00
C 429.74 646.62 424.49 648.55 426.00 651.00
C 429.94 648.23 432.39 643.66 433.00 639.00
C 425.18 634.60 422.38 647.42 415.00 647.00
C 415.05 644.47 418.44 643.96 418.00 641.00
C 391.49 648.68 419.24 636.53 416.00 628.00
C 421.01 630.56 423.38 623.73 421.00 620.00
C 423.31 619.00 424.75 616.36 425.00 614.00
C 417.81 613.72 420.06 619.98 418.00 624.00
C 415.39 621.32 418.41 608.82 422.00 609.00
C 422.72 604.36 418.54 601.25 418.00 597.00
C 423.88 606.38 432.86 616.20 433.00 628.00
C 438.00 627.95 436.17 631.69 436.00 635.00
C 440.48 630.48 441.02 638.81 444.00 641.00
C 433.55 645.36 425.86 667.71 444.00 662.00
C 439.92 655.30 448.79 655.45 451.00 660.00
C 450.83 656.91 449.40 654.26 450.00 651.00
C 446.90 650.80 446.96 654.72 444.00 655.00
C 444.01 646.96 451.93 649.89 456.00 653.00
C 456.91 650.04 450.97 648.48 455.00 647.00
C 455.14 642.94 452.55 648.46 451.00 646.00
C 455.97 641.63 458.52 633.42 462.00 629.00
C 463.97 633.45 463.41 638.63 466.00 643.00
C 466.14 637.96 469.53 639.36 473.00 643.00
C 469.71 638.60 475.27 625.66 474.00 624.00
C 468.79 621.94 463.93 619.20 459.00 617.00
C 443.09 609.89 429.11 590.70 412.00 586.00
C 413.41 603.10 391.41 619.04 374.00 615.00
C 365.87 621.61 361.79 632.15 353.00 638.00 Z"/>
</g>
<g fill="#298FD9" fill-opacity="1.00" stroke="None"><path d="
M 224.00 594.00 
C 217.91 598.52 215.37 606.29 211.00 612.00
C 217.03 607.50 221.54 600.60 224.00 594.00 Z"/>
</g>
<g fill="#2781D0" fill-opacity="1.00" stroke="None"><path d="
M 459.00 617.00 
C 463.93 619.20 468.79 621.94 474.00 624.00
C 475.68 624.70 476.81 626.76 479.00 626.00
C 477.33 617.94 463.13 613.40 461.00 606.00
C 460.55 607.39 458.68 617.18 459.00 617.00 Z"/>
</g>
<g fill="#0E4182" fill-opacity="1.00" stroke="None"><path d="
M 487.00 788.00 
C 473.54 796.68 459.30 782.68 445.00 791.00
C 437.58 796.52 441.37 802.11 431.00 804.00
C 418.06 806.36 410.96 807.25 400.00 815.00
C 377.54 830.88 351.79 843.18 327.00 854.00
C 299.22 872.68 271.02 854.94 246.00 848.00
C 206.42 812.84 166.32 820.86 131.23 854.23 C 96.14 887.60 40.28 878.62 0.00 898.00
L 0.00 1023.00
C 113.50 1024.86 227.56 1020.52 341.00 1023.00 C 454.44 1025.48 568.77 1018.25 682.00 1023.00 C 795.23 1027.75 910.26 1012.81 1023.00 1023.00
C 1023.08 925.67 1014.24 823.88 1023.00 727.00
C 1006.68 728.33 991.66 724.00 978.00 717.00
C 979.33 720.16 980.59 722.11 982.00 725.00
C 977.17 725.28 980.32 727.43 976.00 723.00
C 963.73 733.16 942.86 702.44 929.00 699.00
C 914.66 692.53 886.05 707.14 871.25 698.75 C 856.45 690.36 839.14 684.20 823.23 680.77 C 807.32 677.34 796.87 663.81 785.25 653.75 C 773.63 643.70 754.49 637.84 744.25 628.75 C 734.01 619.66 709.91 604.37 712.00 616.00
C 712.43 622.07 705.69 626.95 709.00 633.00
C 706.47 637.64 696.95 658.66 705.00 654.00
C 700.90 662.75 696.41 671.52 694.00 681.00
C 712.29 697.74 726.21 711.49 753.00 711.00
C 737.00 717.08 724.14 727.65 709.70 737.70 C 695.25 747.74 672.21 748.90 656.07 753.07 C 639.94 757.24 623.84 768.16 612.08 778.08 C 600.33 788.00 583.76 807.36 579.00 800.00
C 574.91 801.15 571.94 805.98 567.00 805.00
C 574.93 802.26 576.29 793.35 579.00 787.00
C 547.54 801.07 512.40 801.92 479.00 794.00
C 481.68 792.22 484.57 790.25 487.00 788.00 Z"/>
</g>
<g fill="#3198E4" fill-opacity="1.00" stroke="None"><path d="
M 207.00 612.00 
C 194.39 613.84 204.04 636.37 197.00 633.00
C 196.54 640.67 191.85 648.20 197.00 655.00
C 200.45 648.92 206.66 644.15 208.00 637.00
C 205.17 638.82 204.20 642.45 202.00 645.00
C 199.26 634.37 202.42 621.69 207.00 612.00 Z"/>
</g>
<g fill="#44AAF1" fill-opacity="1.00" stroke="None"><path d="
M 673.00 616.00 
C 676.93 616.38 682.36 617.80 687.00 617.00
C 665.44 612.73 651.04 633.09 638.00 641.00
C 642.90 634.47 651.07 628.37 655.00 621.00
C 640.53 627.75 632.41 639.18 618.00 643.00
C 618.77 638.52 620.64 638.51 623.00 633.00
C 607.37 638.58 602.61 659.24 588.00 664.00
C 586.45 672.45 569.33 681.91 559.00 683.00
C 558.96 679.85 563.02 678.70 564.00 676.00
C 559.75 675.42 554.60 675.62 551.00 674.00
C 559.49 668.16 568.06 661.78 575.00 654.00
C 563.85 657.01 555.04 665.71 544.00 665.00
C 544.98 662.99 547.36 662.36 549.00 661.00
C 540.23 657.70 554.26 653.27 556.00 648.00
C 552.25 648.45 550.76 653.30 547.00 654.00
C 547.28 651.25 545.88 649.53 547.00 647.00
C 542.78 646.96 542.13 652.31 538.00 653.00
C 537.73 650.25 541.29 649.32 542.00 647.00
C 531.58 649.24 523.39 656.96 513.00 659.00
C 514.28 653.35 518.76 650.21 523.00 647.00
C 515.09 645.48 505.29 647.03 501.00 638.00
C 495.44 638.38 491.62 642.51 487.00 645.00
C 483.07 647.12 477.74 647.80 474.00 651.00
C 473.55 654.74 473.76 656.20 472.00 660.00
C 469.39 665.64 464.82 669.56 460.00 673.00
C 452.63 678.26 441.13 685.40 434.00 692.00
C 423.91 705.99 433.08 722.91 427.00 739.00
C 417.96 738.58 425.07 726.84 420.00 725.00
C 417.66 733.97 409.33 741.74 408.00 751.00
C 411.74 750.49 422.96 741.90 421.00 747.00
C 435.56 743.92 436.66 722.57 453.00 723.00
C 456.74 730.22 449.39 734.58 446.00 740.00
C 453.35 736.10 458.36 727.70 466.00 724.00
C 465.08 728.91 464.61 731.73 461.00 735.00
C 468.55 734.44 474.30 729.62 480.00 725.00
C 470.99 734.98 458.71 743.50 450.00 755.00
C 462.31 745.87 472.55 732.24 486.00 725.00
C 484.20 729.57 490.03 729.26 494.00 728.00
C 490.89 730.00 486.24 735.09 493.00 733.00
C 488.30 742.00 480.37 747.55 474.00 755.00
C 478.26 753.34 491.07 740.27 487.00 750.00
C 490.49 749.53 492.37 745.25 496.00 745.00
C 492.65 750.07 490.23 751.18 495.00 753.00
C 492.22 753.38 490.91 756.22 489.00 758.00
C 492.81 759.98 494.82 752.91 498.00 751.00
C 496.23 760.32 486.97 765.43 482.00 773.00
C 496.16 766.42 506.26 749.65 523.00 748.00
C 519.17 751.04 519.82 751.74 517.00 757.00
C 519.06 755.70 520.95 756.42 523.00 757.00
C 519.37 753.62 524.36 752.11 528.00 752.00
C 522.96 757.69 523.47 763.21 516.00 769.00
C 576.85 718.91 639.64 668.97 697.00 615.00
C 689.27 616.42 681.07 616.00 673.00 616.00 Z"/>
</g>
<g fill="#62C4FB" fill-opacity="1.00" stroke="None"><path d="
M 644.00 622.00 
C 634.32 625.62 626.68 629.86 616.00 632.00
C 600.85 635.03 583.37 623.83 569.01 634.01 C 554.64 644.18 537.72 638.88 523.00 647.00
C 518.76 650.21 514.28 653.35 513.00 659.00
C 523.39 656.96 531.58 649.24 542.00 647.00
C 541.29 649.32 537.73 650.25 538.00 653.00
C 542.13 652.31 542.78 646.96 547.00 647.00
C 545.88 649.53 547.28 651.25 547.00 654.00
C 550.76 653.30 552.25 648.45 556.00 648.00
C 554.26 653.27 540.23 657.70 549.00 661.00
C 547.36 662.36 544.98 662.99 544.00 665.00
C 555.04 665.71 563.85 657.01 575.00 654.00
C 568.06 661.78 559.49 668.16 551.00 674.00
C 554.60 675.62 559.75 675.42 564.00 676.00
C 563.02 678.70 558.96 679.85 559.00 683.00
C 569.33 681.91 586.45 672.45 588.00 664.00
C 602.61 659.24 607.37 638.58 623.00 633.00
C 620.64 638.51 618.77 638.52 618.00 643.00
C 632.41 639.18 640.53 627.75 655.00 621.00
C 651.07 628.37 642.90 634.47 638.00 641.00
C 651.04 633.09 665.44 612.73 687.00 617.00
C 682.36 617.80 676.93 616.38 673.00 616.00
C 662.51 616.00 653.44 618.47 644.00 622.00 Z"/>
</g>
<g fill="#2F93E0" fill-opacity="1.00" stroke="None"><path d="
M 184.00 620.00 
C 177.33 615.60 176.12 626.75 170.00 623.00
C 166.23 630.69 175.57 638.51 170.00 643.00
C 174.60 645.14 172.89 651.60 177.00 654.00
C 178.53 651.37 174.64 649.06 175.00 646.00
C 183.07 655.01 186.87 647.94 179.00 641.00
C 181.17 642.43 182.76 645.00 185.00 642.00
C 183.09 634.76 187.61 626.45 184.00 620.00 Z"/>
</g>
<g fill="#2C90DC" fill-opacity="1.00" stroke="None"><path d="
M 192.00 641.00 
C 196.31 635.41 193.62 625.74 189.00 621.00
C 185.18 627.50 191.09 634.55 192.00 641.00 Z"/>
</g>
<g fill="#2E93DF" fill-opacity="1.00" stroke="None"><path d="
M 165.00 646.00 
C 173.76 636.34 158.64 627.21 157.00 640.00
C 156.91 642.82 158.67 645.06 158.00 648.00
C 165.02 648.92 159.97 640.45 162.00 638.00
C 162.82 640.68 163.83 643.75 165.00 646.00 Z"/>
</g>
<g fill="#2176C8" fill-opacity="1.00" stroke="None"><path d="
M 474.00 651.00 
C 477.74 647.80 483.07 647.12 487.00 645.00
C 486.35 643.16 487.39 639.27 485.00 637.00
C 480.85 637.70 482.31 641.14 482.00 643.00
C 477.19 643.30 474.59 646.17 474.00 651.00 Z"/>
</g>
<g fill="#3096E4" fill-opacity="1.00" stroke="None"><path d="
M 137.00 643.00 
C 131.88 642.86 131.19 648.65 128.00 651.00
C 128.46 657.74 133.13 662.66 131.00 669.00
C 128.51 667.09 127.38 663.91 129.00 661.00
C 124.23 662.11 127.61 667.87 125.00 671.00
C 133.29 665.97 132.51 676.99 128.00 681.00
C 138.06 677.69 132.65 697.50 129.00 703.00
C 137.97 702.41 144.96 695.93 147.00 688.00
C 147.88 694.23 171.08 676.04 165.32 663.68 C 159.56 651.32 149.04 678.69 138.00 680.00
C 140.00 676.31 141.14 672.29 141.00 668.00
C 132.96 678.38 138.38 665.15 138.00 658.00
C 125.19 663.18 140.12 648.46 137.00 643.00 Z"/>
</g>
<g fill="#2882D5" fill-opacity="1.00" stroke="None"><path d="
M 460.00 673.00 
C 464.82 669.56 469.39 665.64 472.00 660.00
C 467.95 663.96 464.02 669.10 460.00 673.00 Z"/>
</g>
<g fill="#2C91DF" fill-opacity="1.00" stroke="None"><path d="
M 105.00 669.00 
C 99.53 669.25 99.78 663.03 96.00 661.00
C 104.12 667.00 94.43 690.55 102.00 684.00
C 101.75 690.16 107.24 705.37 100.00 705.00
C 99.41 707.98 102.85 709.25 101.00 712.00
C 108.18 712.83 109.05 701.08 112.00 704.00
C 117.12 691.02 108.57 680.78 105.00 669.00 Z"/>
</g>
<g fill="#2D93E2" fill-opacity="1.00" stroke="None"><path d="
M 94.00 664.00 
C 92.40 666.02 90.01 667.58 87.00 667.00
C 86.91 677.03 76.54 682.43 72.00 690.00
C 78.12 692.55 72.13 696.18 75.00 701.00
C 81.49 693.99 81.83 681.09 88.00 673.00
C 89.60 678.11 85.45 684.44 89.00 690.00
C 91.94 684.61 92.40 678.22 98.00 674.00
C 97.93 670.12 94.50 667.68 94.00 664.00 Z"/>
</g>
<g fill="#4A95DB" fill-opacity="1.00" stroke="None"><path d="
M 1023.00 727.00 
C 1023.00 726.96 1024.00 727.00 1024.00 727.00
L 1024.00 676.00
C 1024.00 676.00 1023.14 676.22 1023.00 676.00
C 1021.55 692.09 1021.56 710.91 1023.00 727.00 Z"/>
</g>
<g fill="#08448D" fill-opacity="1.00" stroke="None"><path d="
M 235.00 708.00 
C 223.64 718.63 203.74 741.69 202.00 744.00
C 183.62 766.99 154.91 779.70 138.00 805.00
C 160.88 785.19 185.47 761.13 212.00 749.00
C 212.56 752.49 210.29 755.07 209.00 758.00
C 216.81 757.19 217.25 747.11 209.00 747.00
C 212.20 746.40 215.49 745.25 217.00 749.00
C 219.64 745.46 220.79 738.67 225.00 738.00
C 227.43 738.51 226.98 742.61 230.00 742.00
C 224.19 735.30 235.93 729.57 237.00 723.00
C 235.11 725.03 233.05 724.82 232.00 722.00
C 236.55 719.46 238.71 723.49 241.00 718.00
C 240.22 723.49 236.42 727.92 237.00 734.00
C 240.99 731.28 246.22 729.01 247.00 724.00
C 247.60 727.28 248.63 733.19 252.00 728.00
C 254.55 729.36 253.07 731.69 252.00 734.00
C 258.10 734.87 254.94 726.69 257.00 723.00
C 253.42 722.89 252.47 727.69 249.00 727.00
C 249.88 724.60 249.45 722.52 249.00 720.00
C 252.58 720.92 252.29 719.29 256.00 721.00
C 254.24 717.99 267.10 712.42 258.00 716.00
C 264.10 710.13 270.72 702.48 275.00 696.00
C 270.29 702.08 270.62 714.31 279.00 717.00
C 279.75 714.03 278.13 710.06 276.00 714.00
C 278.26 710.15 273.93 706.17 276.00 703.00
C 279.35 704.42 276.54 711.21 282.00 710.00
C 282.03 707.03 278.35 703.47 281.00 701.00
C 283.37 703.92 282.22 708.94 287.00 708.00
C 287.19 704.69 285.28 702.04 287.00 699.00
C 290.06 700.75 291.72 698.10 291.00 695.00
C 285.92 699.75 290.30 691.62 291.00 689.00
C 294.83 692.69 292.57 699.37 292.00 704.00
C 298.14 702.99 297.28 695.39 299.00 691.00
C 292.44 692.82 294.86 684.59 296.00 683.00
C 291.77 686.33 288.65 680.82 285.00 680.00
C 277.12 691.17 264.92 700.68 251.00 698.00
C 250.38 703.66 243.99 703.41 240.00 702.00
C 238.54 704.00 236.60 706.27 235.00 708.00 Z"/>
</g>
<g fill="#329AE7" fill-opacity="1.00" stroke="None"><path d="
M 72.00 686.00 
C 64.95 686.80 64.72 696.41 61.00 701.00
C 70.26 698.23 62.45 710.08 64.00 715.00
C 83.42 716.36 56.70 693.62 72.00 686.00 Z"/>
</g>
<g fill="#2C8EDE" fill-opacity="1.00" stroke="None"><path d="
M 171.00 700.00 
C 153.36 714.35 179.74 716.41 171.00 729.00
C 180.09 726.24 190.19 718.30 198.00 713.00
C 203.49 702.37 191.96 691.43 182.00 692.00
C 178.46 694.74 174.50 697.15 171.00 700.00 Z"/>
</g>
<g fill="#3194E2" fill-opacity="1.00" stroke="None"><path d="
M 403.00 753.00 
C 400.98 764.84 383.40 773.74 382.00 784.00
C 379.06 783.93 377.32 786.71 375.00 788.00
C 388.69 790.56 390.27 768.25 403.00 765.00
C 396.35 776.71 385.20 784.26 379.00 795.00
C 383.98 793.63 391.32 797.38 393.00 790.00
C 395.67 790.67 397.77 792.94 401.00 792.00
C 400.75 794.36 399.31 797.00 397.00 798.00
C 402.93 802.47 395.02 811.52 400.00 815.00
C 410.96 807.25 418.06 806.36 431.00 804.00
C 436.13 800.76 439.56 794.16 445.00 791.00
C 459.30 782.68 473.54 796.68 487.00 788.00
C 495.47 780.17 508.24 777.48 516.00 769.00
C 523.47 763.21 522.96 757.69 528.00 752.00
C 524.36 752.11 519.37 753.62 523.00 757.00
C 520.95 756.42 519.06 755.70 517.00 757.00
C 519.82 751.74 519.17 751.04 523.00 748.00
C 506.26 749.65 496.16 766.42 482.00 773.00
C 486.97 765.43 496.23 760.32 498.00 751.00
C 494.82 752.91 492.81 759.98 489.00 758.00
C 490.91 756.22 492.22 753.38 495.00 753.00
C 490.23 751.18 492.65 750.07 496.00 745.00
C 492.37 745.25 490.49 749.53 487.00 750.00
C 491.07 740.27 478.26 753.34 474.00 755.00
C 480.37 747.55 488.30 742.00 493.00 733.00
C 486.24 735.09 490.89 730.00 494.00 728.00
C 490.03 729.26 484.20 729.57 486.00 725.00
C 472.55 732.24 462.31 745.87 450.00 755.00
C 458.71 743.50 470.99 734.98 480.00 725.00
C 474.30 729.62 468.55 734.44 461.00 735.00
C 464.61 731.73 465.08 728.91 466.00 724.00
C 458.36 727.70 453.35 736.10 446.00 740.00
C 449.39 734.58 456.74 730.22 453.00 723.00
C 436.66 722.57 435.56 743.92 421.00 747.00
C 422.96 741.90 411.74 750.49 408.00 751.00
C 409.33 741.74 417.66 733.97 420.00 725.00
C 425.07 726.84 417.96 738.58 427.00 739.00
C 433.08 722.91 423.91 705.99 434.00 692.00
C 429.11 700.85 414.21 715.64 423.00 724.00
C 415.75 728.69 404.94 741.66 403.00 753.00 Z"/>
</g>
<g fill="#3297E5" fill-opacity="1.00" stroke="None"><path d="
M 0.00 749.00 
L 0.00 808.00
C 28.85 801.93 55.39 785.38 85.30 776.30 C 115.22 767.23 127.94 731.22 160.00 730.00
C 159.50 728.24 157.28 729.28 156.00 729.00
C 159.38 723.96 155.04 719.45 154.00 715.00
C 156.42 714.13 157.53 711.46 157.00 709.00
C 124.01 729.89 88.53 746.59 56.00 768.00
C 64.54 740.99 101.39 737.59 110.00 710.00
C 106.14 710.14 103.09 712.80 104.00 717.00
C 99.47 714.18 99.70 721.86 96.00 722.00
C 98.36 718.22 98.61 714.94 100.00 711.00
C 95.27 713.29 96.28 717.64 94.00 722.00
C 88.89 721.19 84.25 715.35 82.00 711.00
C 84.03 711.73 84.96 714.19 87.00 715.00
C 88.67 709.92 87.42 708.91 92.00 712.00
C 92.84 706.94 87.90 703.67 84.00 702.00
C 84.66 699.80 85.33 697.42 83.00 696.00
C 82.99 701.48 77.69 707.33 76.00 713.00
C 79.91 707.82 84.24 718.78 79.00 721.00
C 78.40 718.44 77.39 715.40 75.00 714.00
C 77.06 722.35 71.84 732.80 62.00 733.00
C 62.18 735.66 60.63 738.25 59.00 740.00
C 58.77 731.84 62.10 720.09 53.00 714.00
C 49.76 720.90 41.66 747.19 31.00 739.00
C 30.99 743.38 30.12 747.14 25.00 749.00
C 24.37 745.31 26.40 742.33 27.00 739.00
C 21.22 749.92 9.72 745.71 0.00 749.00 Z"/>
</g>
<g fill="#4C77AE" fill-opacity="1.00" stroke="None"><path d="
M 1023.00 1023.00 
C 1023.00 1023.50 1023.00 1024.00 1023.00 1024.00
L 1024.00 1024.00
L 1024.00 727.00
C 1024.00 727.00 1023.00 726.96 1023.00 727.00
C 1014.24 823.88 1023.08 925.67 1023.00 1023.00 Z"/>
</g>
<g fill="#1F72C5" fill-opacity="1.00" stroke="None"><path d="
M 327.00 854.00 
C 351.79 843.18 377.54 830.88 400.00 815.00
C 395.02 811.52 402.93 802.47 397.00 798.00
C 399.31 797.00 400.75 794.36 401.00 792.00
C 397.77 792.94 395.67 790.67 393.00 790.00
C 391.32 797.38 383.98 793.63 379.00 795.00
C 385.20 784.26 396.35 776.71 403.00 765.00
C 390.27 768.25 388.69 790.56 375.00 788.00
C 377.32 786.71 379.06 783.93 382.00 784.00
C 383.40 773.74 400.98 764.84 403.00 753.00
C 401.40 754.55 401.45 755.02 400.00 753.00
C 393.39 760.85 383.36 769.62 381.00 781.00
C 378.68 778.93 357.34 791.35 358.00 797.00
C 339.06 801.58 332.11 821.12 319.00 833.00
C 327.52 832.31 333.91 825.24 342.00 823.00
C 339.91 826.33 333.93 826.96 333.00 831.00
C 334.80 830.51 339.12 827.44 339.00 831.00
C 342.20 830.30 338.95 827.61 341.00 826.00
C 342.00 830.88 342.90 829.99 347.00 830.00
C 344.93 832.12 344.34 835.65 340.00 836.00
C 345.57 839.47 337.64 839.06 342.00 843.00
C 337.92 849.26 329.62 844.15 332.00 850.00
C 327.72 846.95 329.47 848.89 329.00 852.00
C 326.99 849.32 323.32 850.73 321.00 852.00
C 322.01 852.69 325.57 854.09 327.00 854.00 Z"/>
</g>
<g fill="#246FB9" fill-opacity="1.00" stroke="None"><path d="
M 431.00 804.00 
C 441.37 802.11 437.58 796.52 445.00 791.00
C 439.56 794.16 436.13 800.76 431.00 804.00 Z"/>
</g>
<g fill="#265591" fill-opacity="1.00" stroke="None"><path d="
M 0.00 1024.00 
L 1023.00 1024.00
C 1023.00 1024.00 1023.00 1023.50 1023.00 1023.00
C 910.26 1012.81 795.23 1027.75 682.00 1023.00 C 568.77 1018.25 454.44 1025.48 341.00 1023.00 C 227.56 1020.52 113.50 1024.86 0.00 1023.00
L 0.00 1024.00 Z"/>
</g>
</svg>